<svg xmlns="http://www.w3.org/2000/svg" width="600" height="375"><path fill="#DAE0D8" d="M0 0h600v375H0z"/><path fill="#384541" d="M295 41c2.875.438 2.875.438 6 2 1.16 2.936 1.627 5.875 2 9l5-1c-.75 2.438-.75 2.438-2 5-2.125.813-2.125.813-4 1l1 3 2.313-2C308 56 308 56 311 56v-7c3.161 1.37 3.993 1.99 6 5 .818 2.64 1.38 5.303 2 8l4-13h2c.286 8.571.286 8.571-2 12h2l.938-1.937C327 57 327 57 328 56c3.438-.187 3.438-.187 7 0 2 2 2 2 2 5-3.145 1.525-5.076 1.999-8.625 1.938-3.338-.275-3.338-.275-5.312 1.562L322 66l1 1 2-2c2.729.033 5.297.564 8 1l1 4c-3.265 1.633-6.862 1.398-10.469 1.621-2.696.147-2.696.147-4.531 2.379-.584 2.484-.952 4.97-1.34 7.492C317 84 317 84 315.434 86.008c-1.92 2.26-1.92 2.26-1.434 6.992l5-11 2 1q3.511-.421 7-1c-.562 2.875-.562 2.875-2 6-3.625 1.375-3.625 1.375-7 2l-1 7 1.25-2.437C321 92 321 92 323.188 91.187L325 91c-.353 3.176-.553 4.61-3.011 6.758-2.674 3.014-2.514 4.883-2.563 8.87l-.084 3.886-.03 4.049c-.038 2.647-.087 5.294-.136 7.94l-.034 3.558C319 129 319 129 318 132c4.79-4.48 5.148-7.74 5.563-14.187l.253-3.856L324 111l-4-2v-5c3.242.35 4.615.562 6.813 3.063L328 109l1-3h-2c-3-5.625-3-5.625-3-9 7.06 2.04 7.06 2.04 9 5 1.65 6.095.815 11.99-1 18-2.062 2.5-2.062 2.5-4 4l-1 3c3.393-1.357 5.592-2.483 7.875-5.375 1.913-6.165 2.626-13.463-.2-19.414-1.642-2.47-1.642-2.47-4.863-4.023C327 96 327 96 326.614 93.973c.012-2.223.012-2.223.387-5.973 3.875 1.875 3.875 1.875 5 3 .04 2 .043 4 0 6l1.875.938L338 100l1-5h2c-.087-2.44-.194-4.875-.312-7.312l-.069-2.092c-.128-3.994-.128-3.994-2.15-7.284L337 77c-.293-2.262-.293-2.262-.187-4.687l.082-2.45L337 68h3v2l3 1c1.327 6.968 1.088 13.93 1 21h2l.875-2.312C348 87 348 87 350 84l-4-2c-.081-2.27-.14-4.541-.187-6.812l-.106-3.833C346 68 346 68 347.512 66.051L349 65c1.5 1.125 1.5 1.125 3 3 .425 4.078.313 5.53-2 9 .312 2.646.312 2.646 1 5h2l-.312-3.625c-.019-3.424.517-5.215 2.687-7.875C358 68 358 68 360 68l1 6 1-1a100 100 0 0 1 5 0c-.573 2.867-.861 3.861-3 6l2-1c1.54-.07 3.083-.085 4.625-.062l2.477.027L375 78c0 2.25 0 2.25-1 5-2.527 1.672-5.2 2.858-8 4l2 4c-3.802 2.586-6.63 1.647-11 1l-2 2c-2.059.238-2.059.238-4.437.313-2.397.143-2.397.143-4.563.687-2.139 2.39-2.139 2.39-3 5l3-1c.25 2.813.25 2.813 0 6-1.937 1.625-1.937 1.625-4 3-.796 2.094-.796 2.094-1 4h2l.188-1.812c1.163-3.132 2.842-3.807 5.812-5.188h4c-.579 3.908-2.145 6.296-5 9-3.75.313-3.75.313-7 0l-.375 2.75c-.546 2.84-1.198 4.776-2.625 7.25l2.75-1.375L348 119v2c6.154-2.28 10.662-4.185 14-10 .165-2.604.063-5.114-.082-7.719C362 101 362 101 363.875 98.375 366 97 366 97 368 97c1.498 3.371 2 5.204 2 9l2-1c.357-2.52.444-5.013.559-7.555.508-2.818 1.165-3.756 3.441-5.445h2c1.765 3.088 2 4.233 2 8h2l.25-1.812c.981-2.862 2.148-3.701 4.75-5.188h4c-.75 2.938-.75 2.938-2 6-2.062.688-2.062.688-4 1l-1 3 4 2c-1 3-1 3-3 4-1.87.228-3.747.41-5.625.563l-3.04.253L374 110l7 3-1 3-4 1 3 8h2v-7h3c2 2 2 2 2.125 5.125L386 126l-4 1 1 4 1.46-1.715 1.915-2.222 1.898-2.215C390 123 390 123 392 122c3.5.188 3.5.188 7 1 1.438 2.063 1.438 2.063 2 4l3.375-.625L408 126l2 2c-3.75 4.875-3.75 4.875-6 6-2 .04-4 .043-6 0v-2h-2l.688 3.313C397 139 397 139 395.563 140.938L394 142l-2.25-2.5c-2.624-2.948-2.624-2.948-6.75-2.5a126 126 0 0 0-6 2l2.688-.687c3.312-.313 3.312-.313 6.125.75 2.818 2.496 2.942 4.258 3.187 7.937l1-1q3.5-.061 7 0v5l1.625-1.562C403 148 403 148 406.25 148.313L409 149c-1.29 2.878-2.574 4.962-5 7l-3 1 2.082-.105 2.73-.083 2.708-.105c2.48.293 2.48.293 4.304 1.68C414 160 414 160 414 162l-4 2v10c-3.46-1.25-6.147-2.675-9-5l-1 3c-5.75-2.625-5.75-2.625-8-6-.125-2.625-.125-2.625 0-5v-1l-7 1 1.563 1.563c2.01 3.408 1.234 5.668.437 9.437-3.142-.934-4.733-1.668-6.812-4.25-1.35-3.127-1.423-5.378-1.188-8.75h-3l1 2c.04 2.333.043 4.667 0 7-1.812-.062-1.812-.062-4-1l-3-7c-1.75-1.105-1.75-1.105-4-1l-3.215-.25c-4.399.29-7.057 1.77-10.598 4.188l-3.394 2.214L346 167c-2.587 1.293-4.378 1.065-7.27.992l-3.193-.05a916 916 0 0 1-6.664-.157l-3.205-.043-2.929-.067c-3.905.463-6.511 2.149-9.321 4.84-4.66 6.569-4.32 13.72-3.418 21.485 1.613 6.16 5.637 10.672 11 14 3.444 1.012 6.866 1.246 10.438 1.5q3.3.316 6.601.652l3.743.375c7.63.82 15.218 1.992 22.806 3.129 2.7.403 5.401.796 8.103 1.188q2.524.376 5.047.754l2.349.337c3.624.555 6.763 1.128 9.913 3.065-9.311-.488-18.56-1.192-27.823-2.251-12.952-1.453-25.789-1.911-38.806-1.917l-5.045-.01q-5.271-.009-10.542-.007-5.306 0-10.613-.02c-24.15-.093-48.178.09-72.171 3.205-1.666.06-3.333.089-5 .063l-2.312-.028L216 218c2.837-1.891 3.823-2.311 7.018-2.746l2.442-.344c.872-.115 1.743-.23 2.642-.347l2.757-.381c2.92-.401 5.843-.792 8.766-1.182q2.871-.393 5.742-.79l5.672-.773 2.819-.384c4.369-.587 8.733-1.129 13.121-1.545l2.336-.232c2.055-.199 4.11-.377 6.167-.553 4.77-.98 8.127-2.971 11.163-6.793l1.168-2.055 1.207-2.07c3.162-5.822 2.567-12.34 1.98-18.805-1.537-4.52-3.583-7.007-7.465-9.727-5.074-1.827-9.649-1.206-14.973-.898-9.157.315-15.411-.508-22.743-6.174-4.567-3.517-7.251-3.734-12.819-3.201-2.507 1.588-2.915 2.752-3.875 5.563C228 167 228 167 225.375 168.313L223 169c-.25-6.625-.25-6.625 2-10l-3 1c-.49 1.99-.974 3.983-1.402 5.988-.84 2.824-2.271 4.267-4.598 6.012h-2c-1.467-6.233-1.467-6.233.75-9.875C217 160 217 160 220 159l-4-2c6.468-1.512 12.356-2.214 19-2l-1-2-3.375-.875C227 151 227 151 225.063 149.063 224 147 224 147 224 144c3.732-.347 5.54-.292 8.75 1.75 2.086 2.086 2.995 3.651 4.25 6.25l3 1c-1.321-5.386-2.21-8.172-6.812-11.187-2.805-1.042-5.221-.948-8.188-.813v-3l5-1-1-1q-.061-3.5 0-7l2-1c2 1.125 2 1.125 4 3 .25 3.063.25 3.063 0 6v2l3-1 1-5h2c1.228 2.455 1.105 4.195 1.188 6.938.629 7.365 3.504 13.343 8.414 18.863 4.203 3.536 8.097 3.654 13.457 3.375L266 162l-1.426-1.102c-4.046-3.267-6.577-5.964-8.574-10.898l-3 4c-3.161-1.37-3.993-1.99-6-5-.125-2.687-.125-2.687 0-5 1.625-.75 1.625-.75 4-1 4.352 2.408 7.55 5.463 11 9a173 173 0 0 0 3.125 2.625c2.09 1.726 4.017 3.414 5.875 5.375l-1-2c-.134-2.672-.043-5.323 0-8l1.875-.75c2.476-1.456 3.076-2.628 4.125-5.25l3 1c-.523 2.763-1.109 5.326-2 8a107 107 0 0 0-.562 4.188L276 161l2.5-.125c4.12.147 7.531 1.03 11.5 2.125-1.612-6.45-4.388-11.65-7.875-17.25l-1.28-2.076c-2.581-4.055-5.308-7.376-8.845-10.674l-1.848-2.246c-3.068-2.5-5.687-2.48-9.59-2.816-5.134-.454-8.24-1.17-12.562-3.938-2.303.691-2.303.691-4 2-.21 3.895-.21 3.895 1 7l-4-2v-2l-2.812.125C235 129 235 129 232 127v-2h-2v-2h12l1-4c-8.158-5.835-14.709-9.169-24.8-9.691C216 109 216 109 213 107l2-4c6.75-.125 6.75-.125 9 1l-2-3c-.258-2.695-.089-5.285 0-8h4c2 2 2 2 2.25 5.313-.231 3.412-.773 5.642-2.25 8.687l7 2-1-2c-.133-1.875-.133-1.875-.125-4l-.008-2.125C232 99 232 99 233 97c2.468 1.152 4.048 2.048 6 4 .315 4.336.449 6.327-2 10l1.688.625C241 113 241 113 243.313 116c2.771 3.551 5.341 4.148 9.687 5-1.078-1.243-1.078-1.243-3.5-1.687L247 118c-.812-3.125-.812-3.125-1-6 2.375.75 2.375.75 5 2 .685 1.324 1.349 2.66 2 4 2.966 2.714 5.17 4.724 9 6l-2-10-4.312-.25c-4.392-.49-4.392-.49-6.75-2.562C248 109 248 109 248 105c3.574.325 5.557.639 8.375 2.938C258 110 258 110 258 112h2v-5l-1.937-.437C256 106 256 106 255 105c-.04-2-.043-4 0-6l3 1c-.861-2.61-.861-2.61-3-5-2.374-.569-4.602-.749-7.04-.86C246 94 246 94 245 93c-2.18-.397-4.37-.743-6.562-1.062l-3.63-.536L232 91v-2c2.557-1.9 4.457-2.922 7.625-3.375 2.884.455 3.363 1.363 5.375 3.375 3.03.658 3.03.658 6 1l2 1v-2l-2.625-.812C247 87 247 87 244.25 85.375c-3.347-1.416-4.843-1.436-8.375-1.25-2.594.102-2.594.102-4.875-.125-2.625-2.5-2.625-2.5-4-5 4.75-2.875 4.75-2.875 7-4 .934-1.817.934-1.817 1-4l-1.5-2c-1.5-2-1.5-2-1.187-4.25L233 63l6 3-.062 3.438c-.354 3.378-.354 3.378 1.062 4.562 1.045-3.97 1.966-7.738 2.5-11.812C243 59 243 59 245 56h2c1.607 3.215 1.057 6.436 1 10l-4 2 1.938 3.125c1.88 3.261 2.693 6.095 3.062 9.875l1.313-2.5L252 76h3v6l-4 2 2 2.375C255 89 255 89 255 91h2l-.176-3.762q-.07-2.463-.137-4.925l-.126-2.475c-.091-4.485-.013-6.256 2.834-9.92C262 68 262 68 264 68c.081 1.437.14 2.874.188 4.313l.105 2.425C264 77 264 77 262.508 78.32c-2.416 2.691-1.902 5.814-1.82 9.243l-.01 2.076c-.058 4.137-.058 4.137 2.322 7.361v3c4.336-2.967 5.404-5.105 7-10 2.125-1.375 2.125-1.375 4-2 .525 5.245.525 5.245 0 8-2.812 2.25-2.812 2.25-6 4-3.822 4.217-4.372 8.186-4.277 13.84.495 3.861 1.93 7.065 4.277 10.16 3.068 2.038 3.068 2.038 6 3-1.822-4.119-1.822-4.119-4.687-7.5-1.313-1.5-1.313-1.5-1.5-4.687L268 112c1.938.813 1.938.813 4 2l1 3 .367-2.336.508-3.039.492-3.023C275 106 275 106 277 104c2.125.375 2.125.375 4 1-.637 4.71-.637 4.71-2.55 6.234-2.288 2.787-1.612 5.203-1.325 8.704l.258 3.714c.634 3.443 1.464 4.71 3.617 7.348q.186-6.457.275-12.915.038-2.194.102-4.388c.061-2.11.09-4.219.111-6.33l.08-3.84c-.743-4.614-2.472-6.108-5.568-9.527v-3c2.867.573 3.861.861 6 3 .125 2.625.125 2.625 0 5h2l-2-9-3.375-.625C275 88 275 88 273.563 84.875L273 82l7 2-2.25-1.625c-2.936-2.536-4.761-5.06-6.75-8.375v-1c5.625-.25 5.625-.25 9 2 .532 1.628 1.05 3.263 1.46 4.926.802 3.082 1.894 6.057 2.954 9.058C285 91 285 91 285 94h2c.467-4.788-.561-7.168-3.11-11.187-1.427-2.907-1.148-5.656-.89-8.813-4.116-2.424-7.96-2.408-12.637-2.656L268 71l-1-2h2l1-4c5.415-.37 5.415-.37 8.375 1.5L280 68c-1.39-2.682-1.39-2.682-4-5-2.333-.21-4.535-.06-6.871.082C267 63 267 63 264.437 61.125 263 59 263 59 263 57c3.176-1.588 6.542-1.41 10-1 2 1.375 2 1.375 3 3v2h2l-.992-1.703c-1.126-2.566-1.215-4.265-1.133-7.047l.055-2.422L276 48c2.862 2.414 3.674 4.542 4.625 8.125.674 3.219.674 3.219 2.375 5.875l2-10h2v-2l3-1 .188 2.875L291 55c2.376 1.184 2.376 1.184 5 2 2.58 2.491 2.978 3.622 3.188 7.25L299 67c-3.13-.335-4-1-6.187-3.375C291 61 291 61 290 58c-2.124.991-2.124.991-4 3-.381 2.666-.516 4.848-.437 7.5l-.022 2.05c-.015 3.844-.015 3.844 1.861 7.044L289 79c1.916 4.417 2.174 7.859 1.75 12.625l-.266 3.352c-.445 2.78-1.057 4.625-2.484 7.023h-2v5h2l.688-2.75c1.498-3.71 3.024-5.058 6.312-7.25h1c-.125 3.25-.125 3.25-1 7-2.937 2.188-2.937 2.188-6 4-2.08 3.026-2 4.145-2 8 3.077-.65 3.077-.65 4.025-2.842L292 111q1.295-1.764 2.594-3.523c3.27-5.193 3.075-10.118 2.906-16.102l.008-3.062c-.072-5.45-.316-9.686-3.508-14.313l-3.187-2.062L288 70c-.375-2.75-.375-2.75 0-5 3.341.557 6.158 1.12 9 3 1.047 2.383 1.047 2.383 1.75 5.125l.734 2.758L300 78c1.14-2.22 2.113-4.324 2.938-6.687.35-.764.7-1.527 1.062-2.313l3-1 2-3h4c.438 2.125.438 2.125 0 5-1.453 1.387-1.453 1.387-3.312 2.813-3.923 3.16-5.826 6.205-6.688 11.187-.996 11.147-.121 20.27 7.125 29.063 1.627 1.791 2.702 2.85 4.875 3.937-1.489-6.308-1.489-6.308-5.625-11L307 105c-1-1-1-1-1.062-4.062L306 98l5 2-.324-3.035c-.845-8.91-.762-14.336 4.324-21.965.395-3.327.395-3.327.375-7l.086-3.75c-.131-3.334-.131-3.334-2.484-5.187L311 58l-.812 1.75C308.23 63.458 307.07 65.643 303 67l-3 3V48l-4-2c-.75-2.625-.75-2.625-1-5"/><path fill="#DBE2DA" d="M368.668 44.105c16.417 13.94 30.233 35.053 33.082 56.708L402 104h-2l-.55-2.371-.762-3.067-.739-3.058L397 93l-3-1-1 2-2 1v-2c-4.963 1.626-4.963 1.626-8.437 5.188L382 100h-2l-2-8c-2.061 1.159-2.061 1.159-4 3-.695 2.494-.695 2.494-.75 5.188l-.172 2.73L373 105l-3 1-2-9c-2.701 1.322-2.701 1.322-5 4-.17 2.3-.17 2.3.063 4.813.183 3.894-.049 5.977-2.5 9.062-3.503 3.528-7.77 5.821-12.563 7.125l-2-1-3 2-5 1 3-10 3.25-.187c3.845-.48 3.845-.48 6.125-3.188 1.74-2.585 1.74-2.585 2.625-5.625-5.494 1.49-5.494 1.49-9.5 5.188L343 112h-2c.313-2.375.313-2.375 1-5l3-2c.25-2.584.25-2.584 0-5h-2c1.875-4.875 1.875-4.875 3-6 2.221-.284 4.443-.448 6.676-.621 2.449-.4 4.125-1.273 6.324-2.379q2.512.44 5 1c2.232-.369 2.232-.369 4-1l-3-5 1.934-.734 2.503-1.016 2.497-.984c2.251-1.085 2.251-1.085 2.851-3.407L375 78q-2.188.212-4.375.438c-.812.08-1.624.162-2.46.246-2.208.207-2.208.207-4.165 1.316l-2-2 4-1v-3l-6 1v-7c-3.012 1.744-4.725 3.118-5.777 6.492-.485 2.498-.9 4.984-1.223 7.508h-2l-2-6 2-2c.417-3 .417-3 0-6l-3-2c-.671 3.944-1.12 7.812-1.25 11.813l-.078 2.269L347 82l3 2-4 8h-2l-.184-2.816c-.49-9.144-.49-9.144-1.816-18.184l-2-1v-2h-3c.087 1.439.196 2.876.313 4.313l.175 2.425c.293 2.338.293 2.338 2.043 3.575 2.38 2.733 1.782 5.937 1.656 9.374l-.04 2.127c-.036 1.73-.09 3.458-.147 5.186l-2 1c-.652 2.025-.652 2.025-1 4l-6-3-.937-3.437c-.72-3.795-.72-3.795-4.063-5.563.134 4.079.134 4.079 1 8 2.833 2.25 2.833 2.25 6 4 4.17 5.538 3.753 11.347 3 18-1.414 4.139-3.316 6.544-7 9h-3c.64-3.71.64-3.71 2.438-5.156 2.364-2.79 2.65-6.026 3.25-9.531l.392-2.127c.317-1.727.62-3.456.92-5.186l-2-1-.75-1.875c-1.77-3.01-4.116-3.762-7.25-5.125l3 9h2l-1 4-1.75-2.437c-2.231-2.542-2.995-3.214-6.25-3.563.602 2.02 1.273 4.021 2 6l2 1c.082 2.208.14 4.416.188 6.625l.105 3.727c-.318 3.965-1.147 6.317-3.293 9.648l-3 1q.03-6.7.153-13.397.034-2.277.043-4.554c.009-2.188.05-4.373.097-6.56l.048-3.984c.81-4.308 2.407-5.681 5.659-8.505.861-2.173.861-2.173 1-4-3.167 1.584-4.733 2.453-6.312 5.688L318 99h-1l1-9 3.875-1.187c3.55-1.295 3.55-1.295 5.625-4.5L328 82c-3.272.154-6.04.553-9 2-1.991 3.157-3.051 6.405-4 10l-2-1c-.417-3.547-.131-4.81 1.938-7.812 1.965-3.038 2.339-3.986 2.625-7.376C318 74 318 74 319.172 72.306c2.5-1.784 4.472-1.813 7.515-1.993l3.012-.199L332 70l1-4c-5.53-.44-5.53-.44-10.5 1.5L321 69c.385-2.233.895-3.837 2.125-5.75 2.867-1.911 5.496-1.367 8.875-1.25 1.676-.285 3.348-.6 5-1l-2-4c-3.374-.334-3.374-.334-7 0-1.843 1.9-1.843 1.9-3 4h-2l2-12h-2l-.367 2.047-.508 2.703-.492 2.672c-.601 2.447-1.413 4.384-2.633 6.578-1.838-2.758-2.301-3.908-2.875-7-.683-2.997-.932-3.818-3.25-6L311 49v7c-6.75 3.875-6.75 3.875-9 5v-4l1.875-.75c2.476-1.456 3.076-2.628 4.125-5.25l-6 2-1-10-4-1-2-1c1.25 3.653 1.671 4.78 5 7 .432 2.155.432 2.155.512 4.79l.107 2.85.068 2.985.104 3.008A713 713 0 0 1 301 69l2-3 1.875-.812c3.065-1.713 4.33-4.238 6.125-7.188 3.875 1.875 3.875 1.875 5 3 .153 2.474.232 4.9.25 7.375l.063 2.078c.04 5.141.04 5.141-1.704 7.149L313 79c-2.026 4.628-2.25 8.899-2.125 13.875l.027 2.086c.024 1.68.06 3.36.098 5.039l-4-1c-.502 2.33-.502 2.33 0 5a107 107 0 0 0 6 4c2.123 2.991 2.2 5.384 2 9-5.83-2.493-9.27-7.922-11.875-13.562-2.42-7.275-2.33-16.693-.062-24 2.074-3.682 4.124-5.52 7.417-8.051 1.786-1.4 1.786-1.4 2.457-4.262L313 65c-1.94.276-1.94.276-4 1l-2 3h-3l-3 12c-2.876-4.314-4-7.807-4-13l-3 1-2-3c-2.06-.724-2.06-.724-4-1 1.041 4.553 1.041 4.553 4.438 7.5L295 74c3.751 5.487 3.516 10.973 3.5 17.375l.086 3.04c.023 8.633-2.55 13.266-8.274 19.522C288 116 288 116 286 117c.491-6.386.491-6.386 2.813-9.187L291 106c2.25-1.917 2.25-1.917 4-4v-4c-2.964 2.808-5.445 5.183-7 9h-2l-1-5 3-1c2.529-6.301 2.948-13.415.625-19.75-1.558-3.284-1.558-3.284-3.625-6.25-1.5-11.734-1.5-11.734 1.344-16.031C288 57.625 288 57.625 291 56l.813 2.75c1.097 3.003 2.033 4.924 4.187 7.25l3 1c-.84-6.059-.84-6.059-5-10.187L291 55c-1.375-2.75-1.375-2.75-2-5h-2v2h-2l-.148 2.152-.227 2.785-.21 2.778L284 62l-2 1c-2.076-4.624-3.7-9.1-5-14-.198 6.084-.198 6.084 1 12h-2l-1.3-1.984c-1.536-2.268-1.536-2.268-4.18-2.407l-2.707.141-2.731.11L263 57c1.39 2.682 1.39 2.682 4 5 2.136.171 2.136.171 4.438-.062 4.122-.28 4.122-.28 6.257 1.378C279.063 65 279.063 65 281 68h-3l-2-2c-3.083-.167-3.083-.167-6 0l-2 4 2.266.113 2.984.2 2.953.175c3.137.574 4.566 1.25 6.797 3.512.723 2.086.723 2.086 1.063 4.375.542 3.052.942 4.633 2.625 7.313 1.76 3.1 1.174 4.942.312 8.312h-2l-.375-3.437L284 87l-2-1c-.5-1.625-.5-1.625-1-4q-.992-3.502-2-7l-7-1c2.534 4.223 4.566 6.783 9 9l-1 2-7-3c1.006 3.016 1.006 3.016 3 6 3.57 1.45 3.57 1.45 7 2l1 9h-2l-.75-2.875c-.936-3.212-.936-3.212-3.375-4.5L276 91c1.721 4.046 1.721 4.046 4.587 7.243 2.204 2.74 1.782 5.691 1.706 9.05l-.013 2.14a711 711 0 0 1-.092 6.754q-.024 2.292-.042 4.584-.051 5.615-.146 11.229c-4.537-4.211-5.723-6.365-6.062-12.625l-.286-3.977C276 112 276 112 278.004 110.29L280 109v-4l-4 1-2 12-2-1v-3l-3-1v7l3 1c1.188 3.063 1.188 3.063 2 6-4.273-.475-6.274-2.843-9-6-2.344-4.13-2.558-8.35-2-13 1.784-5.849 4.131-8.582 9-12h2v-8c-3.988 2.393-4.646 4.667-6 9-1.5 1.875-1.5 1.875-3 3h-2c-3.239-4.092-3.405-7.508-3.375-12.625l-.023-3.977c.43-3.677.778-4.101 3.398-6.398.573-2.272.573-2.272.688-4.687l.199-2.45L264 68l-5 2c-.816 6.99-1.442 13.985-2 21h-2c-4-4.47-4-4.47-4-7l3-2c.733-3.066.733-3.066 1-6-2.032.64-2.032.64-4 2-.812 2.555-.812 2.555-1 5-2.447-2.447-2.735-4.656-3.492-7.957-.61-2.454-1.496-4.729-2.508-7.043l3-2c.364-2.437.364-2.437.188-5.125l-.083-2.758L247 56h-2c-1.456 3.003-2 5.001-2 8.375 0 4.026-.76 6.826-2 10.625l-4-3h2v-6l-6-2c.547 3.375 1.055 5.082 3 8h-2l-.187 2.375L233 77c-2.562 1.313-2.562 1.313-5 2 1.154 2.107 1.154 2.107 3 4 2.378.258 2.378.258 5-.125 6.85-.31 11.384 2.475 17 6.125v2c-1.46-.087-2.918-.195-4.375-.312l-2.46-.176C244 90 244 90 242 87c-3.47.458-6.674.891-10 2v2l2.809.184 3.629.254 3.62.246C245 92 245 92 246 93c1.456.13 2.915.23 4.375.313 4.35.428 4.35.428 6.688 2.624C258 98 258 98 258 100h-2v5l4 2v5h-2l-.5-1.812c-2.313-3.373-5.699-4.021-9.5-5.188 1.028 3.763 1.028 3.763 3 7 3.045 1.258 5.69 1.568 9 2l2 10c-4.576-1.144-6.586-2.814-10-6l-1-3c-2.498-1.699-2.498-1.699-5-3 .548 2.982.548 2.982 2 6 3.018 1.452 3.018 1.452 6 2l-1 2c-5.959-1.747-9.022-3.51-12.773-8.477-1.17-1.668-1.17-1.668-3.227-2.523l1-3c.5-3.458.5-3.458 0-7-2.358-2.472-2.358-2.472-5-4v12c-5-1-5-1-7-2l.5-2.062c.57-3.354.567-6.542.5-9.938l-4-2c-.167 4.921-.248 8.503 2 13l-3-2c-4.802-.549-4.802-.549-8.937 1.5L212 107l1 3c.573 6.302.573 6.302-2 9.438L209 121l-2-2-3 2-1-3-3.062-2.25c-2.847-2.246-2.909-2.535-3.438-6.437C197 106 197 106 199 104c.277-2.227.277-2.227.313-4.812C201.035 76.794 217.925 56.532 234 42c3.197-2.596 6.494-4.843 10-7l3.242-2.023C255.144 28.179 263.112 24.66 272 22l3.008-.969c33.099-8.959 67.845 1.912 93.66 23.074"/><path fill="#3F4A45" d="M378 92c1.765 3.088 2 4.233 2 8h2l.25-1.812c.981-2.862 2.148-3.701 4.75-5.188h4c-.75 2.938-.75 2.938-2 6-2.062.688-2.062.688-4 1l-1 3 4 2c-1 3-1 3-3 4-1.87.228-3.747.41-5.625.563l-3.04.253L374 110l7 3-1 3-4 1 3 8h2v-7h3c2 2 2 2 2.125 5.125L386 126l-4 1 1 4 1.46-1.715 1.915-2.222 1.898-2.215C390 123 390 123 392 122c3.5.188 3.5.188 7 1 1.438 2.063 1.438 2.063 2 4l3.375-.625L408 126l2 2c-3.75 4.875-3.75 4.875-6 6-2 .04-4 .043-6 0v-2h-2l.688 3.313C397 139 397 139 395.563 140.938L394 142l-2.25-2.5c-2.624-2.948-2.624-2.948-6.75-2.5a126 126 0 0 0-6 2l2.688-.687c3.312-.313 3.312-.313 6.125.75 2.818 2.496 2.942 4.258 3.187 7.937l1-1q3.5-.061 7 0v5l1.625-1.562C403 148 403 148 406.25 148.313L409 149c-1.29 2.878-2.574 4.962-5 7l-3 1 2.082-.105 2.73-.083 2.708-.105c2.48.293 2.48.293 4.304 1.68C414 160 414 160 414 162l-4 2v10c-3.46-1.25-6.147-2.675-9-5l-1 3c-5.75-2.625-5.75-2.625-8-6-.125-2.625-.125-2.625 0-5v-1l-7 1 1.563 1.563c2.01 3.408 1.234 5.668.437 9.437-3.142-.934-4.733-1.668-6.812-4.25-1.35-3.127-1.423-5.378-1.188-8.75h-3l1 2c.04 2.333.043 4.667 0 7-1.812-.062-1.812-.062-4-1l-3-7c-1.75-1.105-1.75-1.105-4-1l-3.215-.25c-4.399.29-7.057 1.77-10.598 4.188l-3.394 2.214L346 167c-2.747 1.374-4.817 1.013-7.883.879l-3.535-.147-3.707-.17-3.73-.158A2975 2975 0 0 1 318 167l-1-3-5 1c-1.14-3.666-1.453-5.832-.047-9.457 1.565-2.937 3.26-5.736 5.047-8.543l2.125-3.387c8.312-12.865 8.312-12.865 14.875-15.613a95 95 0 0 1 10.828-1.383c3.648-.71 4.867-1.776 7.172-4.617l-2-2 3.188-1.125c3.919-1.729 7.007-3.892 8.812-7.875.173-2.606.063-5.112-.082-7.719C362 101 362 101 363.875 98.375 366 97 366 97 368 97c1.498 3.371 2 5.204 2 9l2-1c.357-2.52.444-5.013.559-7.555C373.16 94.105 374.42 92 378 92"/><path fill="#4C5752" d="M221 112h7v2l3.125.188c4.82 1.01 6.474 2.328 9.875 5.812v3h-11v2h2l1.25 1.438c1.732 1.834 1.732 1.834 4.688 2 3.602.661 4.75 1.806 7.062 4.562l-3-4c.966-2.414 1.759-3.809 3.813-5.437L248 123l2.18 1.418c3.482 1.953 6.165 2.056 10.132 2.332 5.639.63 9.691 1.482 13.715 5.656 16.731 22 16.731 22 15.973 30.594-5.066.253-9.158-.664-14-2a365 365 0 0 1-.125-4.875l-.07-2.742C276 151 276 151 278 149v-4h-2l-.812 1.938C274 149 274 149 271 150v10c-3-1-3-1-4.812-3.312-2.428-2.982-4.995-4.582-8.188-6.688a249 249 0 0 1-3-4c-2.659-1.662-3.804-2-7-2-.255 3.064-.219 4.632 1.375 7.313L251 153h2c1.637-1.96 1.637-1.96 3-4l1.137 1.828c2.87 4.482 5.379 8.138 9.863 11.172-1.614 1.614-3.332 1.325-5.562 1.438-4.975-.086-7.866-1.169-11.614-4.422-7.05-7.79-8.791-15.709-8.824-26.016h-2v5l-4 2-2-2 1-1c.04-2 .043-4 0-6l-4-2c-.27 4.65-.27 4.65 1 9h-6v3l2.625-.75c4.447-.33 5.983.96 9.375 3.75 2.327 2.404 2.958 3.39 3.188 6.75L240 153c-1.75-.125-1.75-.125-4-1l-1.75-2.937c-3.078-4.19-5.234-4.227-10.25-5.063 2.002 4.77 2.002 4.77 5.824 7.91 2.128.616 2.128.616 5.176 1.09v2l-15 2v3h-11l-.187 3.813c-.409 3.39-.48 3.914-3.25 6.187-2.563 1-2.563 1-4.563 1-.25-7.625-.25-7.625 2-11l-1.977.438c-4.75 1.008-9.137 1.82-14.023 1.562 1.875-3.875 1.875-3.875 3-5q3.493-.553 7-1l-2.5-2.375C192 151 192 151 192 149c2.75-.75 2.75-.75 6-1 2.375 1.688 2.375 1.688 4 4v4l2-1c-.588-3.024-1.227-6.018-2-9q3.5-.061 7 0l1 1 .75-3.312c1.27-3.747 1.908-4.794 5.25-6.688l-3-1-2.312 2.438C208 141 208 141 205 142c-1.507-3.013-1.178-5.683-1-9 2-2 2-2 4.625-2.125L211 131c-2.053-1.026-3.899-1.524-6.125-2.062L201 128v-4c6.385-2.21 6.385-2.21 9.375-1.187C212 124 212 124 213 125l1.25-3.437c1.75-3.563 1.75-3.563 3.938-4.5L220 117z"/><path fill="#384844" d="M188.945 246.059c6.069 3.795 9.812 9.212 12.055 15.941.278 3.224.277 6.453.313 9.688l.087 2.646c.07 7.261-1.57 12.378-6.33 17.908l-1.945 1.633-1.93 1.68c-6.475 4.263-13.717 4.168-21.195 3.445-6.273-1.698-10.455-5.677-14-11-4.503-8.106-4.59-19.198-2.156-28.078 2.683-5.91 6.816-10.27 12.156-13.922 6.793-2.264 16.158-2.38 22.945.059"/><path fill="#D1DAD4" d="M372 112c-2 2-2 2-5.437 3.813-3.334 1.84-4.911 3.69-6.563 7.187l3.688-1.5c3.237-1.225 5.813-1.828 9.312-1.5l-.187 3.375L373 127c2.676 2.185 2.676 2.185 5 2 .364 5.455.364 5.455-1.25 7.875C375 138 375 138 371 138v-9l-4 2v8l-4 1-1-7-2 1a86 86 0 0 0-.875 6.063c-1.36 9.423-3.936 14.45-11.223 20.59-3.33 2.359-6.137 2.46-10.09 2.41l-2.73-.028L333 163v-2c1.61-1.043 1.61-1.043 3.75-2.187 4.427-2.622 6.08-5.203 8.25-9.813l3 4 3-1c.806-2.106.806-2.106 1.188-4.562l.48-2.504L353 143l-1.75 1c-2.25 1-2.25 1-6.25 1l-.187 2.313C344 150 344 150 341.625 151.813 339 153 339 153 336 153l-.875 1.813C334 157 334 157 332 160h-2c.07-.58.14-1.16.21-1.758.402-4.833.402-4.833-1.546-9.105-1.51-1.428-3.084-2.787-4.664-4.137v-2h-2l.656 3.176.844 4.137.434 2.091c.592 2.921 1.066 5.607 1.066 8.596q-2.374.506-4.75 1l-2.672.563C315 163 315 163 311 163c1.142-12.654 10.631-24.935 19.625-33.5 4.577-2.034 9.073-2.43 14.035-2.91 3.453-.61 5.421-1.73 8.34-3.59 2.25.563 2.25.563 4 2 .875 1.875.875 1.875 1 4-.937 2.25-.937 2.25-2 4l3-1 1-3 3.375-.937c3.788-1.11 4.734-1.727 6.625-5.063-5.309.582-5.309.582-10 3-1.562-1.75-1.562-1.75-3-4 .313-2.25.313-2.25 1-4h2v-2c7.286-4.571 7.286-4.571 12-4"/><path fill="#D1DBD5" d="m246 123 1.938.875c5.26 1.933 10.528 3.07 16.125 3.313 5.436.716 8.485 3.722 11.937 7.812 14.682 20.276 14.682 20.276 14 28-5.066.253-9.158-.664-14-2a365 365 0 0 1-.125-4.875l-.07-2.742C276 151 276 151 278 149v-4h-2l-.812 1.938C274 149 274 149 271 150v10c-3-1-3-1-4.812-3.312-2.428-2.982-4.995-4.582-8.188-6.688a249 249 0 0 1-3-4c-2.659-1.662-3.804-2-7-2-.255 3.064-.219 4.632 1.375 7.313L251 153h2c1.637-1.96 1.637-1.96 3-4l1.137 1.828c2.87 4.482 5.379 8.138 9.863 11.172-1.614 1.614-3.332 1.325-5.562 1.438-4.975-.086-7.866-1.169-11.614-4.422-7.05-7.79-8.791-15.709-8.824-26.016h-2v5l-4 2-2-2 1-1a59 59 0 0 0 .063-4.062L234 129c6.4-.492 6.4-.492 9.438 2l1.562 2-3-4c1.152-2.468 2.048-4.048 4-6"/><path fill="#384744" d="M254 246c2.104-.081 4.208-.14 6.313-.187l3.55-.106c3.137.293 3.137.293 4.801 1.41 1.947 2.744 1.772 4.962 1.848 8.301l.107 3.799.068 3.97q.05 2.004.104 4.006.124 4.904.209 9.807 2.16-2.372 4.313-4.75l2.425-2.672A88 88 0 0 0 283 263l-5-1v-1h14l-3 2a171 171 0 0 0-4.062 3.375l-2.098 1.773c-1.956 1.968-2.966 3.222-3.84 5.852.861 2.465.861 2.465 2.508 4.914l1.742 2.805 1.875 2.906 1.805 2.93c3.48 5.875 3.48 5.875 9.07 9.445v1c-2.228.109-4.458.186-6.687.25l-3.762.14c-4.207-.462-5.628-1.386-8.551-4.39-2.248-3.219-4.062-6.575-6-10l-1 12h4v2h-21l1-2h4c-.067-6.8-.157-13.599-.262-20.398q-.051-3.472-.084-6.943c-.034-3.322-.086-6.643-.142-9.964l-.02-3.15-.06-2.912-.033-2.57L257 248z"/><path fill="#384845" d="M316 260c11.944-.565 11.944-.565 16 3 3.197 3.644 5.258 7.276 7.25 11.688l1.578 3.449C342 281 342 281 342 283h2l.34-2.57c.705-3.661 1.845-6.844 3.223-10.305l1.378-3.492L350 264l-5-2v-2h14v2l-2.75.875c-3.478 2.274-3.813 2.822-5.168 6.504l-1.02 2.71c-.35.961-.7 1.922-1.062 2.911q-1.696 4.505-3.404 9.006-1.177 3.105-2.328 6.219l-1.147 2.998-1.018 2.71C340 298 340 298 337 299a3460 3460 0 0 1-5-9.875l-1.445-2.84-1.368-2.715-1.269-2.507C327 279 327 279 327 277h-2l-.48 1.766c-1.988 6.983-4.627 13.58-7.52 20.234h-3l-1.146-2.475a22749 22749 0 0 0-6.073-13.11q-1.32-2.852-2.644-5.704l-1.603-3.46a211 211 0 0 0-3.23-6.545C298 265 298 265 298 263l-4-2c2.061-.109 4.124-.186 6.188-.25l3.48-.14c4.165.488 5.487 1.318 8.332 4.39 1.667 2.822 3.001 5.749 4.313 8.75l1.087 2.402c.879 1.944 1.741 3.895 2.6 5.848a280 280 0 0 0 2.04-3.797l1.146-2.136c1.086-2.217 1.086-2.217.189-5.317L322 268l-.875-2.25c-1.395-2.17-2.762-2.805-5.125-3.75z"/><path fill="#374643" d="M237.086 261.785c3.315 2.104 5.186 4.76 6.914 8.215.085 1.96.107 3.922.098 5.883l-.01 3.535-.025 3.707-.014 3.73A3195 3195 0 0 1 244 296l4 1v1c-9.015.63-9.015.63-13.125-2L233 294l-2.375 1.938c-4.726 3.713-8.754 3.589-14.625 3.062-3.686-1.613-4.754-2.63-7-6-.266-2.121-.266-2.121-.25-4.437l-.016-2.31c.31-2.62.684-4.123 2.266-6.253 6.68-2.21 14.026-2.232 21-2-.06-1.918-.15-3.834-.25-5.75l-.14-3.234c-.726-3.59-1.711-4.832-4.61-7.016-3.168-.334-3.168-.334-6 0l-1 11c-2.875.125-2.875.125-6 0-2-2-2-2-2.437-5.375.437-3.625.437-3.625 2.75-6 7.293-4.41 15.353-3.523 22.773.16"/><path fill="#D8DFD7" d="M180 246c4.187 3.213 6.616 6.945 8 12 .456 4.277.464 8.515.438 12.813l.06 3.408c-.004 7.813-.862 15.22-5.887 21.52-2.375 1.856-4.749 1.79-7.677 1.677C173 297 173 297 170.625 294.812c-6.144-10.633-6.52-26.295-3.871-38.199 2.5-6.561 5.395-12.055 13.246-10.613"/><path fill="#374744" d="M390.79 262.52c3.163 2.118 4.7 3.981 6.21 7.48.29 2.762.192 5.209 0 8-5.947 2.074-11.002 3.132-17.312 3.063l-3.239-.028L374 281c.256 1.94.53 3.877.813 5.813l.457 3.269c.754 3.014 1.207 4.166 3.73 5.918 3.754.417 6.298.28 9.813-1.125 2.75-2.358 3.338-4.403 4.187-7.875h2c-.137 2.946-.299 5.202-2.297 7.477-5.194 4.396-9.347 4.878-15.914 4.8-5.519-.548-9.043-3.214-12.664-7.34-4.339-5.997-3.705-12.795-3.125-19.937 1.805-5.868 6.045-9.403 11.313-12.25 7.172-2.002 12.08-.744 18.476 2.77"/><path fill="#3B4540" d="M230 128c2.5 1.125 2.5 1.125 5 3 .313 3.063.313 3.063 0 6v2l3-1 1-5h2c1.228 2.455 1.105 4.195 1.188 6.938.629 7.365 3.504 13.343 8.414 18.863 4.203 3.536 8.097 3.654 13.457 3.375L266 162l-1.426-1.102c-4.046-3.267-6.577-5.964-8.574-10.898l-3 4c-3.161-1.37-3.993-1.99-6-5-.125-2.687-.125-2.687 0-5 1.625-.75 1.625-.75 4-1 4.352 2.408 7.55 5.463 11 9a173 173 0 0 0 3.125 2.625c2.09 1.726 4.017 3.414 5.875 5.375l-1-2c-.134-2.672-.043-5.323 0-8l1.875-.75c2.476-1.456 3.076-2.628 4.125-5.25l3 1c-.523 2.763-1.109 5.326-2 8a107 107 0 0 0-.562 4.188L276 161l-4-2-1 5h-2v2h8v1c-20.28 2.816-20.28 2.816-29.312-3.437l-1.716-1.31c-4.643-3.517-7.346-3.8-12.972-3.253-2.507 1.588-2.915 2.752-3.875 5.563C228 167 228 167 225.375 168.313L223 169c-.25-6.625-.25-6.625 2-10l-3 1c-.49 1.99-.974 3.983-1.402 5.988-.84 2.824-2.271 4.267-4.598 6.012h-2c-1.467-6.233-1.467-6.233.75-9.875C217 160 217 160 220 159l-4-2c6.468-1.512 12.356-2.214 19-2l-1-2-3.375-.875C227 151 227 151 225.063 149.063 224 147 224 147 224 144c3.732-.347 5.54-.292 8.75 1.75 2.086 2.086 2.995 3.651 4.25 6.25l3 1c-1.321-5.386-2.21-8.172-6.812-11.187-2.805-1.042-5.221-.948-8.188-.813v-3l5-1-1-1c-.125-3.5-.125-3.5 0-7z"/><path fill="#49544F" d="M348 65c2 1.125 2 1.125 4 3 .51 4.082.314 5.53-2 9 .312 2.646.312 2.646 1 5h2l-.312-3.625c-.019-3.424.517-5.215 2.687-7.875C358 68 358 68 360 68l1 6 1-1a100 100 0 0 1 5 0c-.573 2.867-.861 3.861-3 6l2-1c1.54-.07 3.083-.085 4.625-.062l2.477.027L375 78c0 2.25 0 2.25-1 5-2.527 1.672-5.2 2.858-8 4l2 4c-3.802 2.586-6.63 1.647-11 1l-2 2c-2.059.238-2.059.238-4.437.313-2.397.143-2.397.143-4.563.687-2.139 2.39-2.139 2.39-3 5l3-1c.25 2.813.25 2.813 0 6-1.937 1.625-1.937 1.625-4 3-.796 2.094-.796 2.094-1 4h2l.188-1.812c1.163-3.132 2.842-3.807 5.812-5.188h4c-.579 3.908-2.145 6.296-5 9-3.75.313-3.75.313-7 0l-1 4-1-10-1 8h-1l-.113-2.23c-.333-7.448-.333-7.448-3.887-13.77l-3.187-1.812C327 96 327 96 326.613 93.973c.012-2.223.012-2.223.387-5.973 3.875 1.875 3.875 1.875 5 3 .04 2 .043 4 0 6l1.875.938L338 100l1-5h2c-.087-2.44-.194-4.875-.312-7.312l-.069-2.092c-.128-3.994-.128-3.994-2.15-7.284L337 77c-.293-2.262-.293-2.262-.187-4.687l.082-2.45L337 68h3v2l3 1c1.327 6.968 1.088 13.93 1 21h2l.875-2.312C348 87 348 87 350 84l-4-2a711 711 0 0 1-.125-6.812l-.07-3.833C346 68 346 68 348 65"/><path fill="#D1DBD5" d="m265 69 1 2 2.703-.105 3.547-.082 3.516-.106c3.518.319 4.843.731 7.234 3.293.723 2.086.723 2.086 1.063 4.375.542 3.052.942 4.633 2.625 7.313 1.76 3.1 1.174 4.942.312 8.312h-2l-.375-3.437L284 87l-2-1c-.5-1.625-.5-1.625-1-4q-.992-3.502-2-7l-7-1c2.534 4.223 4.566 6.783 9 9l-1 2-7-3c1.006 3.016 1.006 3.016 3 6 3.57 1.45 3.57 1.45 7 2l1 9h-2l-.75-2.875c-.936-3.212-.936-3.212-3.375-4.5L276 91c1.721 4.046 1.721 4.046 4.587 7.243 2.204 2.74 1.782 5.691 1.706 9.05l-.013 2.14a711 711 0 0 1-.092 6.754q-.024 2.292-.042 4.584-.051 5.615-.146 11.229c-4.537-4.211-5.723-6.365-6.062-12.625l-.286-3.977C276 112 276 112 278.004 110.29L280 109v-4l-4 1-2 12-2-1v-3l-3-1v7l3 1c1.188 3.063 1.188 3.063 2 6-4.273-.475-6.274-2.843-9-6-2.344-4.13-2.558-8.35-2-13 1.784-5.849 4.131-8.582 9-12h2v-8c-3.988 2.393-4.646 4.667-6 9-1.5 1.875-1.5 1.875-3 3h-2c-3.239-4.092-3.405-7.508-3.375-12.625l-.023-3.977C260 80 260 80 261.398 78.04 263 77 263 77 265 77z"/><path fill="#4B534E" d="M371.016 140.277 373 141c4.511 1.42 8.262 2.231 13 2l2 4 1-6h1l1 6 1-1q3.5-.061 7 0v5l1.625-1.562C403 148 403 148 406.25 148.313L409 149c-1.29 2.878-2.574 4.962-5 7l-3 1 2.082-.105 2.73-.083 2.708-.105c2.48.293 2.48.293 4.304 1.68C414 160 414 160 414 162l-4 2v10c-3.46-1.25-6.147-2.675-9-5l-1 3c-5.75-2.625-5.75-2.625-8-6-.125-2.625-.125-2.625 0-5v-1l-7 1 1.563 1.563c2.01 3.408 1.234 5.668.437 9.437-3.142-.934-4.733-1.668-6.812-4.25-1.353-3.133-1.188-5.377-1.188-8.75-1.417-1.751-1.417-1.751-3-3v-2l2.375-.687c2.844-1.094 2.844-1.094 3.938-3.938L383 147l-6 1-.875 2.875C375 154 375 154 373 156c-5.333.333-5.333.333-8-1v-2l1.863-.445c5.535-1.475 5.535-1.475 9.2-5.743L377 144c-5.522.713-5.522.713-9.867 3.914A86 86 0 0 0 363 154l-3-1c1.021-5.674 2.804-8.28 7.148-12.031C369 140 369 140 371.016 140.277"/><path fill="#DCE6E0" d="M300 106c2.34 2.173 4.081 4.133 5.75 6.875 2.852 3.961 6.255 6.39 10.25 9.125-1.23 17.47-1.23 17.47-8 24l-1.691 1.7L305 149l-3-1c-.567-4.54.992-7.242 3.223-11.035 1.115-2.262 1.115-2.262-.223-5.965l-4 9c-3.861-2.574-3.943-4.61-5-9-.306 4.646-.306 4.646 1 9 1.486 2.972 1.126 5.736 1 9-5.164-1.912-7.958-6.196-10.602-10.773-2.457-5.67-2.729-11.207-1.398-17.227 2.28-2.654 4.589-4.332 7.508-6.246 3.483-2.451 4.742-4.936 6.492-8.754"/><path fill="#3D4843" d="M295 41c2.875.438 2.875.438 6 2 1.16 2.936 1.627 5.875 2 9l5-1c-.75 2.438-.75 2.438-2 5-2.125.813-2.125.813-4 1l1 3 2.313-2C308 56 308 56 311 56v-7c3.161 1.37 3.993 1.99 6 5 .818 2.64 1.38 5.303 2 8l4-13h2c.286 8.571.286 8.571-2 12h2l.938-1.937C327 57 327 57 328 56c3.438-.187 3.438-.187 7 0 2 2 2 2 2 5-3.145 1.525-5.076 1.999-8.625 1.938-3.338-.275-3.338-.275-5.312 1.562L322 66l1 1 2-2c2.729.033 5.297.564 8 1l1 4c-3.265 1.633-6.862 1.398-10.469 1.621-2.696.147-2.696.147-4.531 2.379-.584 2.484-.952 4.97-1.34 7.492C317 84 317 84 315.434 86.008c-1.92 2.26-1.92 2.26-1.434 6.992l5-11 2 1q3.511-.421 7-1c-.562 2.875-.562 2.875-2 6-3.625 1.375-3.625 1.375-7 2l-1 7 1.25-2.437C321 92 321 92 323.188 91.187L325 91c-.353 3.174-.55 4.608-3.009 6.751-2.689 3.037-2.53 4.968-2.6 8.983l-.098 3.926q-.023 2.045-.043 4.09-.042 2.069-.09 4.137-.105 5.055-.16 10.113h-1l-1-24-1 2h-2c-5.22-6.687-4.768-13.797-4-22 .976-3.855 2.793-6.69 5-10 .395-3.327.395-3.327.375-7l.086-3.75c-.131-3.334-.131-3.334-2.484-5.187L311 58l-.812 1.75C308.23 63.458 307.07 65.643 303 67l-3 3V48l-4-2c-.75-2.625-.75-2.625-1-5"/><path fill="#364643" d="M403 246c2.104-.081 4.208-.14 6.313-.187l3.55-.106c3.137.293 3.137.293 4.812 1.52 1.71 2.288 1.688 3.589 1.666 6.428l-.001 2.85-.047 3.07-.013 3.148c-.017 3.322-.054 6.643-.092 9.964q-.024 3.377-.042 6.752-.05 8.28-.146 16.561l4 1v1h-20v-2h4v-48z"/><path fill="#A28248" d="M368.668 44.105c16.417 13.94 30.233 35.053 33.082 56.708L402 104h-2l-.742-3.27C392.87 74.443 377.519 51.15 354.2 36.9 329.197 22.378 302.172 17.856 274 25l-3.34.809C246.491 32.4 225.934 49.906 213 71c-5.892 10.455-10.047 21.15-12 33h-2c.497-22.55 14.988-42.576 30.542-57.894C234.037 41.818 238.717 38.25 244 35l3.242-2.023C255.144 28.179 263.112 24.66 272 22l3.008-.969c33.099-8.959 67.845 1.912 93.66 23.074"/><path fill="#334340" d="M428 246c2.291-.054 4.583-.093 6.875-.125l3.867-.07C442 246 442 246 444 248c.24 2.063.24 2.063.227 4.633v2.912l-.032 3.15-.008 3.22a2449 2449 0 0 1-.062 10.21q-.016 3.455-.027 6.91-.034 8.483-.098 16.965l5 1v1h-21v-2h5l-1-48z"/><path fill="#464F49" d="M245 56h2c1.607 3.215 1.057 6.436 1 10l-4 2 1.938 3.125c1.88 3.261 2.693 6.095 3.062 9.875l1.313-2.5L252 76h3v6l-4 2 2 2.375C255 89 255 89 255 91h2l-.176-3.762q-.07-2.463-.137-4.925l-.126-2.475c-.091-4.485-.013-6.256 2.834-9.92C262 68 262 68 264 68c.081 1.437.14 2.874.188 4.313l.105 2.425C264 77 264 77 262.5 78.377c-1.916 2.073-1.852 3.072-1.793 5.853l.03 2.432.075 2.525.042 2.561c.035 2.084.089 4.168.146 6.252-2.437-.375-2.437-.375-5-1l-1-2c-2.093-.429-2.093-.429-4.5-.562-4.404-.342-4.404-.342-5.5-1.438-2.18-.397-4.37-.743-6.562-1.062l-3.63-.536L232 91v-2c2.557-1.9 4.457-2.922 7.625-3.375 2.884.455 3.363 1.363 5.375 3.375 3.03.658 3.03.658 6 1l2 1v-2l-2.625-.812C247 87 247 87 244.25 85.375c-3.347-1.416-4.843-1.436-8.375-1.25-2.594.102-2.594.102-4.875-.125-2.625-2.5-2.625-2.5-4-5 4.75-2.875 4.75-2.875 7-4 .934-1.817.934-1.817 1-4l-1.5-2c-1.5-2-1.5-2-1.187-4.25L233 63l6 3-.062 3.438c-.354 3.378-.354 3.378 1.062 4.562 1.045-3.97 1.966-7.738 2.5-11.812C243 59 243 59 245 56"/><path fill="#D7E2DC" d="M372 112c-2 2-2 2-5.437 3.813-3.334 1.84-4.911 3.69-6.563 7.187l3.688-1.5c3.237-1.225 5.813-1.828 9.312-1.5l-.187 3.375L373 127c2.676 2.185 2.676 2.185 5 2 .364 5.455.364 5.455-1.25 7.875C375 138 375 138 371 138v-9l-4 2v8l-4 1-1-7-2 1a86 86 0 0 0-.875 6.063c-1.36 9.423-3.936 14.45-11.223 20.59-3.33 2.359-6.137 2.46-10.09 2.41l-2.73-.028L333 163v-2c1.61-1.043 1.61-1.043 3.75-2.187 4.427-2.622 6.08-5.203 8.25-9.813l3 4 3-1c.806-2.106.806-2.106 1.188-4.562l.48-2.504L353 143l-1.75 1c-2.25 1-2.25 1-6.25 1l-.25 2.375C344 150 344 150 341.938 151.313L340 152l-2-2h2l.367-1.934.508-2.504.492-2.496L342 141l2-1v3c4.324-2.026 4.324-2.026 8-5l1 3 3 1 1-2-1.5-3.5-1.5-3.5 1-2-7-2c2.414-4.707 2.414-4.707 5-6 2 0 2 0 3.813 1.125C358 126 358 126 357.75 128.563 357 131 357 131 356 133l3-1 1-3 3.375-.937c3.788-1.11 4.734-1.727 6.625-5.063-5.309.582-5.309.582-10 3-1.562-1.75-1.562-1.75-3-4 .313-2.25.313-2.25 1-4h2v-2c7.286-4.571 7.286-4.571 12-4"/><path fill="#C4CDC8" d="M221 112h7v2l3.125.188c4.82 1.01 6.474 2.328 9.875 5.812v3h-11v2h2c1.625 2 1.625 2 3 4l-2 1-3-1c-.27 4.65-.27 4.65 1 9-4.5.365-4.5.365-6.625-1.187-1.793-2.365-1.872-4.061-2.062-7l-.2-2.731L222 125h-2l-.062 3.875-.036 2.18c-.028 2.027-.028 2.027 1.098 3.945l-9-1v-3l-11-3v-4c6.385-2.21 6.385-2.21 9.375-1.187C212 124 212 124 213 125l1.25-3.437c1.75-3.563 1.75-3.563 3.938-4.5L220 117z"/><path fill="#404F4B" d="M375 259c7.114-.659 12.058 1.021 18 5 3.206 3.435 4.201 5.784 4.25 10.375L397 278c-8.113 2.83-15.546 4.114-24 2-.284-5.134-.412-9.62 1.563-14.437 1.837-3.444 1.837-3.444.437-6.563"/><path fill="#C4D0C9" d="M311 58c3.875 1.875 3.875 1.875 5 3 .153 2.474.232 4.9.25 7.375l.063 2.078c.04 5.141.04 5.141-1.704 7.149L313 79c-2.026 4.628-2.25 8.899-2.125 13.875l.027 2.086c.024 1.68.06 3.36.098 5.039l-4-1c-.502 2.33-.502 2.33 0 5a107 107 0 0 0 6 4c2.123 2.991 2.2 5.384 2 9-5.83-2.493-9.27-7.922-11.875-13.562-2.42-7.275-2.33-16.693-.062-24 2.074-3.682 4.124-5.52 7.417-8.051 1.786-1.4 1.786-1.4 2.457-4.262L313 65c-1.94.276-1.94.276-4 1l-2 3h-3l-3 12c-2.024-3.035-2.321-4.194-2.625-7.687l-.227-2.45L298 69h3l2-3 1.875-.812c3.065-1.713 4.33-4.238 6.125-7.188"/><path fill="#3B4A47" d="M232 279v13l2 1c-5.557 4.712-8.115 6.297-15.52 6.223-3.18-.286-5.045-1.169-7.48-3.223-2.073-3.11-2.274-3.891-2.25-7.437l-.016-2.31c.31-2.621.686-4.122 2.266-6.253 6.885-2.374 13.917-2.18 21-1"/><path fill="#3C4B47" d="M288 327c2.5 1.313 2.5 1.313 4 3v3l-1.687-1c-2.616-1.131-4.494-1.157-7.313-1-.806 2.285-.806 2.285-1 5 1.31 2.325 1.31 2.325 3.313 4.313l1.925 2.113c1.617 1.796 1.617 1.796 3.762 1.574l1-3h2l-.25 3.688c-.025 3.478.209 4.25 2.25 7.312l2 2c-5.625.25-5.625.25-9-2l-2.062 1.5c-3.686 1.882-5.846 2.085-9.938 1.5-3.347-2.421-4.76-3.874-5.625-7.937.857-4.202 2.687-5.978 5.625-9.063l-1-1c-.579-6.252-.579-6.252 1.5-8.937 3.552-1.51 6.697-1.647 10.5-1.063"/><path fill="#3D4C48" d="m231 328 7.25-.125 2.263-.055c3.665-.03 6.464.006 9.487 2.18 2.342 3.513 2.496 4.865 2 9-2.15 3.338-3.204 4.735-7 6a81 81 0 0 1-4.687.063L236 345v9h-5z"/><path fill="#57625C" d="M288 65c3.341.557 6.158 1.12 9 3 1.047 2.383 1.047 2.383 1.75 5.125l.734 2.758L300 78c1.14-2.22 2.113-4.324 2.938-6.687L304 69l3-1 2-3h4c.438 2.125.438 2.125 0 5-1.453 1.387-1.453 1.387-3.312 2.813C305.77 75.968 303.843 79.018 303 84c-.52 7.745-.384 14.62 2 22h-2.187c-3.83 1.362-4.438 3.447-6.348 6.895-1.659 2.384-3.263 3.455-5.715 4.98-2.665 1.803-3.596 2.582-4.484 5.719-.239 2.495-.345 4.902-.266 7.406h-1q-.33-3.435-.625-6.875l-.352-3.867L284 117l2-2h4l.838-1.78c1.1-2.1 2.351-3.84 3.756-5.743 3.27-5.193 3.075-10.118 2.906-16.102l.008-3.062c-.072-5.45-.316-9.686-3.508-14.313l-3.187-2.062L288 70c-.375-2.75-.375-2.75 0-5"/><path fill="#DBE5DF" d="M259 128c3.877-.565 7.396-.774 10.992.96C278.704 135.794 285.522 148 290 158c.188 2.875.188 2.875 0 5-5.066.253-9.158-.664-14-2a365 365 0 0 1-.125-4.875l-.07-2.742C276 151 276 151 278 149v-4h-2l-.812 1.938C274 149 274 149 271 150v10c-3.35-1.117-3.793-1.747-5.687-4.562l-1.325-1.942L263 152l2-1c.656-2.527.656-2.527 1-5l1.813.625c2.472.682 2.472.682 5.187-1.625.25-3.584.25-3.584 0-7-3.298.85-3.298.85-6 4l1-10-6 2v-4l-3-1z"/><path fill="#D7DED8" d="M406.25 148.313 409 149c-1.29 2.878-2.574 4.962-5 7l-3 1 2.082-.105 2.73-.083 2.708-.105c2.48.293 2.48.293 4.304 1.68C414 160 414 160 414 162l-4 2v10c-3.46-1.25-6.147-2.675-9-5l-1 3c-5.75-2.625-5.75-2.625-8-6-.205-2.801-.263-4.475 1-7-1.67-3.224-1.67-3.224-4.625-3.687L386 155v-2l10-1 1-3 2 2 1.625-1.562C403 148 403 148 406.25 148.313"/><path fill="#D6DFD9" d="M262 130v4l3-2h3v9l3-4 3 1c.313 3.313.313 3.313 0 7-2.5 1.938-2.5 1.938-5 3l-3-2v5c-2.375-.312-2.375-.312-5-1-2.29-3.435-2.178-4.985-2-9l-7 1-3-4-1 4h-4v-6l1.938-.937c1.998-.898 1.998-.898 3.062-2.063l-2-2c5.565-2.444 9.273-3.864 15-1"/><path fill="#44534E" d="M214 327c3.563 1.813 3.563 1.813 6 4v3l-6-3c-3.691-.342-6.138-.464-9.437 1.313-2.547 4.38-2.392 8.762-1.563 13.687 1.817 3.403 1.817 3.403 5 5 3.744-.057 3.744-.057 7-1l1-7h-6v-3h12v14h-3v-2l-2.562 1.5c-3.919 1.71-6.206 2.029-10.438 1.5-4.619-2.576-8.306-4.92-10-10-.545-4.691-.448-8.103 1.688-12.375 4.774-5.42 9.241-6.766 16.312-5.625"/><path fill="#CAD3CD" d="M299 112h2c1.37 2.74 1.126 4.97 1 8l-1 2h-2v7h-2c-1.512 3.024-1.173 5.662-1 9l1 2c1.486 2.972 1.126 5.736 1 9-5.164-1.913-7.943-6.202-10.621-10.758-1.56-3.666-1.845-6.394-1.879-10.367-.03-1.199-.062-2.398-.094-3.633.594-3.242.594-3.242 2.918-5.687C291 117 291 117 294.312 117.25L297 118v-3h2z"/><path fill="#D9E3DD" d="M322.563 88.938 326 89l.625 3.25c1.667 4.546 3.342 5.28 7.375 7.75 4.162 5.55 3.754 11.34 3 18-1.414 4.139-3.316 6.544-7 9h-3c.64-3.71.64-3.71 2.438-5.156 2.364-2.79 2.65-6.026 3.25-9.531l.392-2.127c.317-1.727.62-3.456.92-5.186l-2-1-.75-1.875c-1.77-3.01-4.116-3.762-7.25-5.125l3 9h2l-1 4-1.75-2.437c-2.231-2.542-2.995-3.214-6.25-3.563.602 2.02 1.273 4.021 2 6l2 1c.082 2.208.14 4.416.188 6.625l.105 3.727c-.318 3.965-1.147 6.317-3.293 9.648l-3 1q.03-6.7.153-13.397.034-2.277.043-4.554c.009-2.188.05-4.373.097-6.56l.048-3.984c.81-4.308 2.407-5.681 5.659-8.505.861-2.173.861-2.173 1-4-3.167 1.584-4.733 2.453-6.312 5.688L318 99h-1q.212-2.22.438-4.437c.08-.824.162-1.648.246-2.497.545-3.564 1.062-3.062 4.878-3.129"/><path fill="#D4DDD8" d="M254 95h2l2 5h-2v5l4 2v5h-2l-.5-1.812c-2.313-3.373-5.699-4.021-9.5-5.188 1.028 3.763 1.028 3.763 3 7 3.045 1.258 5.69 1.568 9 2l2 10c-4.576-1.144-6.586-2.814-10-6l-1-3c-2.498-1.699-2.498-1.699-5-3 .548 2.982.548 2.982 2 6 3.018 1.452 3.018 1.452 6 2l-1 2c-5.959-1.747-9.022-3.51-12.773-8.477-1.17-1.668-1.17-1.668-3.227-2.523l2-9c5.875 1.875 5.875 1.875 7 3 .346-3 .346-3-1.5-4.562L243 99v-2c7.75-.125 7.75-.125 10 1z"/><path fill="#DBE5DE" d="m342 128-3 7-4-2v-2h-2l.438 3.813.246 2.144c.288 2.237.288 2.237 1.316 5.043l2 1-2 5h-1l-.75-3.875c-.77-3.392-.77-3.392-3.375-5.625L328 138l-1 5-2-2-1 2h-2l.656 3.176.844 4.137.434 2.091c.592 2.921 1.066 5.607 1.066 8.596q-2.374.506-4.75 1l-2.672.563C315 163 315 163 311 163c1.133-12.562 10.677-25.467 20-33.625 3.961-1.815 6.676-1.673 11-1.375"/><path fill="#404A44" d="M248 143c6.067.867 9.888 4.788 14 9q1.547 1.331 3.125 2.625c2.09 1.726 4.017 3.414 5.875 5.375l-1-2c-.134-2.672-.043-5.323 0-8l1.875-.75c2.476-1.456 3.076-2.628 4.125-5.25l3 1c-.523 2.763-1.109 5.326-2 8a107 107 0 0 0-.562 4.188L276 161l-4-2-1 5h-2v2h8v1l-21 1v-2l6.055-.488c2.34-.386 2.34-.386 3.945-3.512l-1.426-1.102c-4.046-3.267-6.577-5.964-8.574-10.898l-3 4c-3.161-1.37-3.993-1.99-6-5-.187-2.625-.187-2.625 0-5z"/><path fill="#3B4B47" d="M331 327c3.5 1.875 3.5 1.875 6 4v2l-2.562-1c-3.648-1.061-6.66-1.151-10.438-1 .121 2.424.121 2.424 1 5 2.18 1.578 2.18 1.578 4.875 2.625 6.077 2.64 6.077 2.64 8.125 5.375-.068 3.82-.114 6.114-2.875 8.875-4.15 2.197-7.473 2.52-12.125 2.125-5.684-3.053-5.684-3.053-7-7 2.962.613 4.38 1.254 7 3 3.042.333 3.042.333 6 0l2-2v-4l-2.59-1.242-3.348-1.633-3.34-1.617C319 339 319 339 318 337c-.375-2.875-.375-2.875 0-6 3.59-4.264 7.658-5.062 13-4"/><path fill="#CED7D0" d="m360 68 1 6 1-1a100 100 0 0 1 5 0c-.573 2.867-.861 3.861-3 6l2-1c1.54-.07 3.083-.085 4.625-.062l2.477.027L375 78c.063 2.25.063 2.25-1 5-4.668 3.07-9.395 4.575-15 4l-1 3h-9c2.49-2.667 4.634-4.557 8-6h-4c-.86-9.678-.86-9.678 2.375-13.625C358 68 358 68 360 68"/><path fill="#D2DBD4" d="M382 117c2 1.125 2 1.125 4 3 .25 3.188.25 3.188 0 6l-4 1 1 4 1.46-1.715 1.915-2.222 1.898-2.215C390 123 390 123 392 122c3.5.188 3.5.188 7 1 1.438 2.063 1.438 2.063 2 4l3.375-.625L408 126l2 2c-3.75 4.875-3.75 4.875-6 6-2 .04-4 .043-6 0v-2c-5.03.417-9.34.944-14 3h-3c-.77-5.89-1.242-11.16 0-17z"/><path fill="#BBC6BE" d="M358 97a56.5 56.5 0 0 1-4 7l5-1c.125 6.625.125 6.625-1 10h-3l-1 5-1.828.55c-4.302 1.354-7.63 2.59-11.172 5.45h-3l3-10 3.25-.187c3.845-.48 3.845-.48 6.125-3.188 1.74-2.585 1.74-2.585 2.625-5.625-5.494 1.49-5.494 1.49-9.5 5.188L343 112h-2c.313-2.375.313-2.375 1-5l3-2 .438-3c.562-3 .562-3 2.125-4.375 3.54-.908 6.785-.747 10.437-.625"/><path fill="#404B45" d="m312 79 4 5-1 1.688c-1.33 2.657-1.33 2.657-1 7.312l5-11 2 1q3.511-.421 7-1c-.562 2.875-.562 2.875-2 6-3.625 1.375-3.625 1.375-7 2l-1 7 1.25-2.437C321 92 321 92 323.188 91.187L325 91c-.353 3.174-.55 4.608-3.009 6.751-2.689 3.037-2.53 4.968-2.6 8.983l-.098 3.926q-.023 2.045-.043 4.09-.042 2.069-.09 4.137-.105 5.055-.16 10.113h-1l-1-24-1 2h-2c-5.195-6.656-4.758-13.832-4-22 1.023-3.465 1.023-3.465 2-6"/><path fill="#CFD8D0" d="M386.852 109.488 388 111l1-3c3.875 1.875 3.875 1.875 5 3 .401 8.157.401 8.157-2 12-1.621 1.563-1.621 1.563-3.437 3-2.601 2.135-4.705 4.16-6.563 7v-6l3-1c.25-2.916.25-2.916 0-6l-3-2-1 7-3 1-3-10 5-1 1-2-8-2 1-2c2.398-.52 2.398-.52 5.375-.812l2.96-.333c2.665.145 2.665.145 4.517 1.633"/><path fill="#CAD3CC" d="M199 149c1.813 1.313 1.813 1.313 3 3v4l2-1 1-3 9 1v2l-2.937.875c-3.17.767-3.17.767-4.063 3.125h2c-.07 3.074-.258 6.01-1 9-2.445 2.069-3.79 3-7 3-.25-7.625-.25-7.625 2-11l-1.977.438c-4.75 1.008-9.137 1.82-14.023 1.562 1.875-3.875 1.875-3.875 3-5q3.493-.553 7-1l-2.5-2.375C192 151 192 151 192 149c2.734-1.367 4.107-.847 7 0"/><path fill="#D6DED9" d="M221 112h7v2l3.125.188c4.82 1.01 6.474 2.328 9.875 5.812v3c-2.867-.573-3.861-.861-6-3-2.655-.565-5.291-.738-8-1l1 2c.25 3.5.25 3.5 0 7l-3 2-3-6h-3v2h-4c-.687-2.25-.687-2.25-1-5 1.25-2.312 1.25-2.312 3-4h3z"/><path fill="#30403D" d="M346 327h4v16h5l.875-2.312C357 338 357 338 359 335h4c-2 5-2 5-3.437 7.375-.85 2.568-.85 2.568.425 4.426a79 79 0 0 0 2.848 3.648C364 352 364 352 364 354c-2.75.375-2.75.375-6 0-4-4.842-4-4.842-4-8h-4v8h-4z"/><path fill="#455350" d="M384 335h5v2l3-2c1.938-.3 1.938-.3 4-.312l2.063-.051c1.937.363 1.937.363 3.675 1.37 2.013 3.18 1.573 6.548 1.45 10.18l-.042 2.272c-.035 1.847-.089 3.694-.146 5.541h-5l-1-15-5-1c-2.858 2.858-2.408 5.147-2.625 9.125l-.227 3.883L389 354h-5z"/><path fill="#D0DBD4" d="M371.016 140.277 373 141c4.511 1.42 8.262 2.231 13 2 1.283 2.113 2.016 3.5 1.938 6-1.396 2.977-3.193 4.23-5.938 6-3.312.75-3.312.75-6 1v-2l2.375-.687c2.844-1.094 2.844-1.094 3.938-3.938L383 147l-6 1-.875 2.875C375 154 375 154 373 156c-5.333.333-5.333.333-8-1v-2l1.863-.445c5.535-1.475 5.535-1.475 9.2-5.743L377 144c-5.522.713-5.522.713-9.867 3.914A86 86 0 0 0 363 154l-3-1c1.021-5.674 2.804-8.28 7.148-12.031C369 140 369 140 371.016 140.277"/><path fill="#323D37" d="M306 98c3.515 1.9 5.896 3.566 8 7v2h2l1-7h1v33c-2-2-2-2-2.062-3.883l.062-2.242c-.275-3.425-.72-4.593-3.18-7.07a126 126 0 0 0-5.375-3.883c-2.666-2.096-3.982-3.88-5.445-6.922v-3c2.87.354 3.868.856 5.852 3.031l1.773 2.469c2.23 3.284 2.23 3.284 5.375 5.5-1.489-6.308-1.489-6.308-5.625-11L307 105c-1-1-1-1-1.062-4.062z"/><path fill="#C8D1CA" d="m232 63 7 3-.062 3.438c-.354 3.378-.354 3.378 1.062 4.562l2-4 1 10 5 2v2a400 400 0 0 1-8.25.313l-2.355.126c-2.239.048-4.205.03-6.395-.439-2.547-2.52-2.547-2.52-4-5 4.75-2.875 4.75-2.875 7-4 .934-1.817.934-1.817 1-4a125 125 0 0 0-3-4z"/><path fill="#DCE6E1" d="M228 140c4.39.813 7.71 2.665 10.813 5.875 1.426 2.553 1.427 4.245 1.187 7.125-1.75-.125-1.75-.125-4-1l-1.75-2.937c-3.078-4.19-5.234-4.227-10.25-5.063 2.002 4.77 2.002 4.77 5.824 7.91 2.128.616 2.128.616 5.176 1.09v2c-5.198.617-5.198.617-8 0-1.607-1.667-2.658-3.387-3.836-5.375-1.136-1.921-1.136-1.921-3.976-2.562L217 147c.56 2.49.56 2.49 2 5 3.03 1.372 3.03 1.372 6 2v1c-4.437.435-6.367.475-10-2.25-2-2.75-2-2.75-1.875-4.937A306 306 0 0 1 215 144c4.445-1.334 8.332-2.292 13-2z"/><path fill="#DBE5DE" d="m242 139 1 4h4l.875 3.313c.944 3.727.944 3.727 3.125 6.687h2c1.637-1.96 1.637-1.96 3-4l1.137 1.828c2.87 4.482 5.379 8.138 9.863 11.172-1.614 1.614-3.332 1.325-5.562 1.438-4.969-.086-7.85-1.174-11.61-4.399-4.255-4.746-8.176-10.668-8.203-17.226z"/><path fill="#4E5851" d="M220 125h2l.367 2.082.508 2.73.492 2.708c.545 2.707.545 2.707 2.633 5.48l-1 3 3-1v3h-6v-2h-2v-2l-7 1 3-3-3-1-2.312 2.438C208 141 208 141 205 142c-1.507-3.013-1.178-5.683-1-9 2-2 2-2 4.625-2.125L211 131l1 3h8l-1-1c-.235-5.53-.235-5.53 1-8"/><path fill="#D7DCD5" d="M377 261c2.375.313 2.375.313 5 1 2.491 3.737 2.207 5.745 2.125 10.188l-.055 3.855L384 279h-10a382 382 0 0 1-.187-6.187l-.106-3.481c.317-3.602 1.208-5.426 3.293-8.332"/><path fill="#969E99" d="M324 97c7.06 2.04 7.06 2.04 9 5 .844 3.57 1.395 5.972.063 9.438L332 113h-2l-2 5-2-1-1 7h-1v-13l-4-2v-5c3.242.35 4.615.562 6.813 3.063L328 109l1-3h-2c-3-5.625-3-5.625-3-9"/><path fill="#D5DDD5" d="M222 280h10c.108 1.915.186 3.833.25 5.75l.14 3.234c-.39 3.016-.39 3.016-2.242 5.38C228 296 228 296 225.375 296.437L223 296c-2.173-3.26-2.25-4.23-2.187-8l.019-2.625C221 283 221 283 222 280"/><path fill="#BFC8C3" d="M378 92c1.765 3.088 2 4.233 2 8h2l.25-1.812c.981-2.862 2.148-3.701 4.75-5.188h4c-.75 2.938-.75 2.938-2 6-2.125.875-2.125.875-4 1v2l-3.062 1.25a63 63 0 0 0-7.625 3.875C371 109 371 109 367 110l2-8 1 4 2-1c.357-2.52.444-5.013.559-7.555C373.16 94.105 374.42 92 378 92"/><path fill="#D3DED8" d="M311 58c3.875 1.875 3.875 1.875 5 3 .181 2.434.278 4.813.313 7.25l.087 2.027c.047 3.655-.32 5.596-2.295 8.707C312 81 312 81 310 81c-1.362-6.44-1.362-6.44.375-9.125L312 70c.714-2.65.714-2.65 1-5-1.94.276-1.94.276-4 1l-2 3h-3l-3 12c-2.024-3.035-2.321-4.194-2.625-7.687l-.227-2.45L298 69h3l2-3 1.875-.812c3.065-1.713 4.33-4.238 6.125-7.188"/><path fill="#354541" d="M231 328h12l-1 2h-6v12h7l-1 2h-6v10h-5z"/><path fill="#DBE6DE" d="M300 106c3.783 3.783 5.537 6.425 8 11l-2.437 2.063c-2.986 3.422-3.3 5.48-3.563 9.937h2l-2 10h-3c-1.316-3.62-2-6.096-2-10h2v-7h2v-10h-2v3h-2v3l-4-1z"/><path fill="#C9D3CB" d="m213 135 5 2-1.875.875c-2.258 1.062-2.258 1.062-4.125 3.125-.4 2.323-.74 4.657-1 7l-9-2 1.563 2.25C205 151 205 151 204.688 153.313L204 155l2 1h-4l-.875-2.312c-1.088-2.838-1.088-2.838-3.125-5.688h2l1-5-3 1c-2.333.04-4.667.044-7 0a56.5 56.5 0 0 1 4-7c1.945-.293 1.945-.293 4.125-.187L203 137v5c5.99-2.195 5.99-2.195 10-7"/><path fill="#3A4A47" d="M275 340c3.232.077 5.332.374 7.734 2.625A101 101 0 0 1 287 348c-.836 1.953-.836 1.953-2 4-2.625.75-2.625.75-5 1l4 2c-4.332.425-6.35.47-9.937-2.125C272 350 272 350 271.5 346.938c.538-3.158 1.35-4.61 3.5-6.938"/><path fill="#A37F47" d="m233 43 3 1-2.746 2.605C216.747 62.517 204.786 81.037 201 104h-2c.516-23.406 15.808-43.383 31.945-59.05z"/><path fill="#D4DED8" d="M252 65h2l.875 3.438L256 72l2 1c.097 6.115-.23 11.933-1 18h-2c-4-4.47-4-4.47-4-7l3-2c.733-3.066.733-3.066 1-6-2.032.64-2.032.64-4 2-.812 2.555-.812 2.555-1 5-2.175-2.175-2.386-2.971-3-5.875-.678-2.959-1.457-5.48-3-8.125l4 2 1.875-3z"/><path fill="#34403A" d="M309 65h4c.438 2.125.438 2.125 0 5-1.625 1.551-3.32 2.817-5.176 4.082-5.049 5.309-5.267 12.37-5.387 19.293-.18 8.368-.18 8.368-2.437 10.625-1.2-2.4-1.115-3.894-1.098-6.57l.01-2.715.026-2.84.013-2.863q.018-3.507.049-7.012h3l-.125-3.687c.006-3.526.33-6.195 2.125-9.313l3-1z"/><path fill="#D7E1DB" d="M328 137c3.161 1.37 3.993 1.99 6 5 .414 2.262.414 2.262.625 4.688l.227 2.449L335 151h5l-1 2h-3l-.875 1.813C334 157 334 157 332 160h-2c.07-.58.14-1.16.21-1.758.428-4.8.428-4.8-1.546-9a189 189 0 0 0-3.312-2.902C324 145 324 145 323.375 142.312c.803-2.97 2.028-3.77 4.625-5.312"/><path fill="#3B4B48" d="M214 327c3.563 1.813 3.563 1.813 6 4v3l-6-3c-3.373-.584-3.373-.584-7 0-3.727 3.241-5.178 5.488-5.812 10.375L201 345c-1.937.563-1.937.563-4 1-1.55-1.55-1.244-3.037-1.312-5.187.059-4.677 1.165-7.24 4.312-10.813 4.194-3.595 8.703-3.855 14-3"/><path fill="#D2DBD5" d="m390 137 4 4 3 1 1-5c3.25-.312 3.25-.312 7 0 2.438 2.375 2.438 2.375 4 5v2h-9l-1 3-3.375-.062c-3.457-.202-3.457-.202-5.625 1.062v-7c-5.166-1.792-8.51-2.12-14-1 1.337-2.675 2.529-2.784 5.313-3.75l2.363-.86c2.866-.481 3.928.035 6.324 1.61m4 6-1 2h5z"/><path fill="#49534D" d="M246 112c4.7 1.484 4.7 1.484 6.125 3.938L253 118c1.541 1.71 1.541 1.71 3 3-1 2-1 2-3.812 3.125C249 125 249 125 245 125c-1.217 1.765-1.217 1.765-2 4 .783 2.235.783 2.235 2 4l-4-2v-2l-2.812.125C235 129 235 129 232 127v-2h-2v-2h12c1.751-1.417 1.751-1.417 3-3v2l3-2c2.688.375 2.688.375 5 1-1.078-1.243-1.078-1.243-3.5-1.687L247 118c-.812-3.125-.812-3.125-1-6"/><path fill="#DFEBE4" d="M297 91h1c.61 8.124.39 13.672-5 20-4.216 4.608-4.216 4.608-7 6 .491-6.386.491-6.386 2.813-9.187L291 106c2.25-1.917 2.25-1.917 4-4v-4c-2.964 2.808-5.445 5.183-7 9h-2l-1-5 3-1c.835-1.844.835-1.844 1.375-4 .734-2.191.734-2.191 1.625-4 2.625-.937 2.625-.937 5-1z"/><path fill="#CCD6D1" d="m326.688 70.813 3.011.082L332 71l-2 1-.937 2.875c-1.49 4.378-1.49 4.378-4.063 6.125-3.187.688-3.187.688-6 1l-.586 2.117-.789 2.758-.773 2.742C316 92 316 92 314 94c-1-1-1-1-1.312-3.187C313 88 313 88 314.938 85.187c1.965-3.037 2.339-3.985 2.625-7.374C318 74 318 74 319.172 72.273c2.565-1.786 4.425-1.57 7.515-1.46"/><path fill="#D7E1DA" d="M311 41h2l.48 1.68c1.424 4.8 1.424 4.8 5.207 7.82L321 51v-5c1.756 2.627 2.027 3.79 1.61 6.98l-.86 3.208-.828 3.23C320 62 320 62 318 63l-.516-2.3-.734-3.013-.703-2.988c-1.18-3.043-2.295-4.033-5.047-5.699v7c-6.75 3.875-6.75 3.875-9 5v-4l2.938-1.25c3.185-1.399 3.185-1.399 3.937-3.937L309 50l-3-1 3-2c1.213-3.054 1.213-3.054 2-6"/><path fill="#C4CDC8" d="M406.25 148.313 409 149c-1.845 4.116-3.51 6.341-7.687 8.188L399 158l1 1q.062 3.5 0 7l-.687-1.812c-1.656-2.76-3.554-3.602-6.313-5.188l-2-3c-2.563-.73-2.563-.73-5-1v-2l10-1 1-3 2 2 1.625-1.562C403 148 403 148 406.25 148.313"/><path fill="#DDE8E4" d="M309 89c2.68 4.019 2.156 6.242 2 11l-4-1c-.502 2.33-.502 2.33 0 5a107 107 0 0 0 6 4c2.123 2.991 2.2 5.384 2 9-3.338-1.402-5.017-2.951-7.125-5.875l-1.508-2.055c-2.868-4.343-3.607-7.03-3.492-12.32l.055-3.266L303 91l6 3z"/><path fill="#DAE4DE" d="m345 149 3 4 6-2c-.083 2.838-.572 4.54-2.52 6.633-4.525 3.944-7.552 5.509-13.668 5.43l-2.73-.028L333 163v-2c1.61-1.043 1.61-1.043 3.75-2.187 4.427-2.622 6.08-5.203 8.25-9.813"/><path fill="#CBD7D0" d="M294 74c3.123 4.074 4.168 6.263 4.25 11.438l.078 2.933C298 91 298 91 296.797 92.785c-2.223 1.503-4.158 1.858-6.797 2.215.08-3.126.194-6.25.313-9.375l.068-2.695.107-2.578.08-2.38C291 76 291 76 294 74"/><path fill="#7B8780" d="M322 91h3c-.353 3.174-.55 4.608-3.009 6.751-2.689 3.037-2.53 4.968-2.6 8.983l-.098 3.926q-.023 2.045-.043 4.09-.042 2.069-.09 4.137-.105 5.055-.16 10.113h-1l-1-24-1 2h-2c-4.062-6.154-4.062-6.154-3.75-10.437L311 94c2.468 1.152 4.048 2.048 6 4l1.938-2.937C321 92 321 92 322 91"/><path fill="#424C47" d="M271 73c5.625-.25 5.625-.25 9 2 .531 1.628 1.05 3.263 1.457 4.926.81 3.092 1.95 6.061 3.055 9.058C285 91 285 91 284 94l-.562-1.875c-1.36-2.52-1.36-2.52-4.938-3L275 88c-1.437-3.125-1.437-3.125-2-6l7 2-2.25-1.625c-2.936-2.536-4.761-5.06-6.75-8.375z"/><path fill="#444F48" d="M337 68h3v2l3 1c1.153 6.342 1.095 12.567 1 19h-1v7l-5 2 1-4h2c-.087-2.44-.194-4.875-.312-7.312l-.069-2.092c-.128-3.994-.128-3.994-2.15-7.284L337 77c-.293-2.262-.293-2.262-.187-4.687l.082-2.45z"/><path fill="#535D57" d="M295 41c2.875.438 2.875.438 6 2 1.16 2.936 1.627 5.875 2 9l5-1c-.75 2.438-.75 2.438-2 5-2.125.813-2.125.813-4 1 .348 1.975.348 1.975 1 4l2 1c-1.28 3.646-2.167 5.167-5 8V48l-4-2c-.75-2.625-.75-2.625-1-5"/><path fill="#E0ECE4" d="M287 131c3.834.548 5.539 2.062 8 5 2.798 4.497 3.316 7.734 3 13-5.225-1.935-8.016-6.525-11-11a98 98 0 0 1 0-7"/><path fill="#D0DCD4" d="M267 102c1.234 2.467 1 4.268 1 7l1 2h-2c.254 1.482.53 2.96.813 4.438l.457 2.496L269 120l3 1c1.188 3.063 1.188 3.063 2 6-4.273-.475-6.274-2.843-9-6-2.367-4.171-2.473-8.317-2-13 .875-2.937.875-2.937 2-5z"/><path fill="#E0ECE4" d="M319 103h1l.875 3.438L322 110l2 1c.082 2.208.14 4.416.188 6.625l.105 3.727c-.318 3.965-1.147 6.317-3.293 9.648l-3 1z"/><path fill="#D9E5DF" d="m333 101 3 1c1.876 5.628 2.119 12.683.21 18.34-1.695 3.06-3.288 4.712-6.21 6.66h-3c.64-3.71.64-3.71 2.438-5.156 2.364-2.79 2.65-6.026 3.25-9.531l.392-2.127c.317-1.727.62-3.456.92-5.186l-2-1z"/><path fill="#DFEAE3" d="M281 104h1v28c-5.226-5.226-5.692-5.803-6.062-12.625l-.286-3.977C276 112 276 112 277.957 110.207L280 109c.804-2.599.804-2.599 1-5"/><path fill="#3C4A47" d="M359 335h4c-2 5-2 5-3.437 7.375-.85 2.568-.85 2.568.425 4.426a79 79 0 0 0 2.848 3.648C364 352 364 352 364 354c-2.75.375-2.75.375-6 0-4-4.842-4-4.842-4-8l-4-1 1-2h4l.875-2.312C357 338 357 338 359 335"/><path fill="#D6DDD5" d="M236 331c6.055-.195 6.055-.195 8 0 2 2 2 2 2.313 4.938C246 339 246 339 244.938 340.875c-2.94 1.707-5.617 1.313-8.938 1.125z"/><path fill="#AAB3AD" d="M347 130c5.75-.125 5.75-.125 8 1 .39 1.318.71 2.657 1 4a503 503 0 0 0 2 6l-3 2-4-3-1.812 1.5C347 143 347 143 344 143c.313-2.375.313-2.375 1-5 3-2 3-2 7-2v-2l-5-1z"/><path fill="#D8E1DB" d="M291 56v8h-4c1.124 4.66 1.124 4.66 4.625 7.75L294 73v2l-2 1 .125 3.375C292 83 292 83 290 85l-2.148-5.176c-.92-2.09-.92-2.09-2.852-4.824-1.341-11.491-1.341-11.491 1.086-16.031C289.072 56 289.072 56 291 56"/><path fill="#555D58" d="M379 155c3 1 3 1 4 3 2.126.467 2.126.467 4.563.625l2.503.227L392 159v1l-7 1 1.563 1.563c2.01 3.408 1.234 5.668.437 9.437-3.142-.934-4.733-1.668-6.812-4.25-1.366-3.161-1.41-5.338-1.188-8.75v-4"/><path fill="#3D4C49" d="M371 335h5v19h-5z"/><path fill="#BBC4BD" d="M251.063 129.938 254 130l-.187 2.813c-.144 3.165-.144 3.165 1.687 4.875L257 139v3c-2.312.25-2.312.25-5 0-1.812-2-1.812-2-3-4l-1 4h-4v-6l1.938-.937c1.998-.898 1.998-.898 3.062-2.063l-2-2c1-1 1-1 4.063-1.062"/><path fill="#37413D" d="M351 157c2.813.25 2.813.25 5 1v3c-3.864 3.59-8.038 5.903-13.336 6.164-2.928-.257-5.776-.618-8.664-1.164l-1-3 2.668-.297 3.52-.453 3.48-.422c3.703-.92 5.46-2.396 8.332-4.828"/><path fill="#4D524D" d="m355.375 212.625 2.129.28c10.862 1.48 21.682 3.304 32.496 5.095v1a490 490 0 0 1-28.028-2.265c-6.981-.76-13.962-1.3-20.972-1.735v-1c5.205-1.78 8.827-2.129 14.375-1.375"/><path fill="#4B544E" d="M277 104c2.125.375 2.125.375 4 1-.25 2.313-.25 2.313-1 5l-1.969 1.281c-2.819 2.385-2.816 4.302-3.281 7.906l-.453 3.293L274 125c-5.976-5.823-5.976-5.823-6.062-10.125L268 112c1.938.813 1.938.813 4 2l1 3 .367-2.336.508-3.039.492-3.023C275 106 275 106 277 104"/><path fill="#48534C" d="M210.188 122.5c2.564 2.122 4.093 4.675 5.812 7.5-3.659 1.315-6.08.655-9.75-.437l-2.984-.872L201 128v-4c6.264-2.168 6.264-2.168 9.188-1.5"/><path fill="#3C4440" d="m248 157 1.328 1.059c5.992 4.298 11.41 4.808 18.672 4.941-3.679 3.074-6.524 3.947-11.25 4.348-5.176-.655-8.88-4.046-12.75-7.348z"/><path fill="#3E4D49" d="M210 340h12v14h-2v-3l-3-1v-7h-7z"/><path fill="#515F5B" d="M345 260h14v2l-2.75.875c-4.716 3.084-5.528 6.93-7.25 12.125a611 611 0 0 1-1.75 4.625L346 283l-2-1c1.765-6.107 3.696-12.074 6-18l-5-2z"/><path fill="#C2CCC6" d="m242 136 2 1v5h4v-5l1.688 2c2.13 2.231 2.13 2.231 4.875 2.25L257 141h3l-.125 2.813c-.146 3.345-.146 3.345 2.125 6.187l3 2-3 1-2.125-2.25c-5.515-5.275-9.391-7.234-16.875-7.75z"/><path fill="#404B44" d="M397.227 122.371C399 123 399 123 400.5 125.063L401 127c-3.032 2.021-3.98 2.267-7.437 2.5-3.346.226-5.634.845-8.563 2.5 2.005-7.352 4.377-11.015 12.227-9.629"/><path fill="#38423C" d="M224 144c3.691-.343 5.547-.278 8.75 1.688 2.355 2.42 3.415 4.056 4.25 7.312l-1 3h-8v-1h7l-1-2-3.375-.875C227 151 227 151 225.063 149.063 224 147 224 147 224 144"/><path fill="#3C4540" d="M288 65c3.315.553 6.208 1.075 9 3 2.65 4.372 2.194 9.061 2 14-1.539-1.958-2.871-3.683-3.812-6-1.171-2.323-1.171-2.323-4.313-3.937L288 70c-.375-2.75-.375-2.75 0-5"/><path fill="#3D4C48" d="M288 327c2.5 1.313 2.5 1.313 4 3v3l-1.687-1c-2.616-1.131-4.494-1.157-7.313-1l-.375 2.438L282 336l-2 1v-2l-4 2c-.481-6.378-.481-6.378 1.5-8.937 3.552-1.51 6.697-1.647 10.5-1.063"/><path fill="#46504B" d="M208.625 130.875 211 131l1 3h5l-1.687.688c-2.525 1.297-2.525 1.297-4.875 3.875C208 141 208 141 205 142c-1.507-3.013-1.178-5.683-1-9 2-2 2-2 4.625-2.125"/><path fill="#545E59" d="M276 91c2.867.573 3.861.861 6 3 .125 2.625.125 2.625 0 5l6 1-1.962 1.593c-2.635 3.112-2.574 4.883-2.647 8.923l-.098 3.789-.043 3.945-.09 3.992q-.105 4.879-.16 9.758h-1l-.012-2.842q-.044-5.25-.14-10.5a387 387 0 0 1-.044-4.533c-.009-2.181-.05-4.36-.097-6.54l-.048-3.966c-.845-4.64-2.537-6.17-5.659-9.619z"/><path fill="#414B45" d="M377 144c-.546 3.82-1.946 5.67-5 8-3.75.75-3.75.75-7 1v2l2 1h-3l-1-3c1.145-2.008 1.145-2.008 2.813-4.125l1.644-2.133c2.883-3.255 5.38-2.832 9.543-2.742"/><path fill="#3C463F" d="M379 103c2.69.176 5.329.618 8 1v4c-2.483 1.241-4.483 1.288-7.25 1.5-3.962.328-7.84.76-11.75 1.5 2.783-3.274 6.291-4.94 10-7z"/><path fill="#414C46" d="M324 97c7.06 2.04 7.06 2.04 9 5 .688 3.688.688 3.688 1 7l-3 2-2-1v-4h-2c-3-5.625-3-5.625-3-9"/><path fill="#CFD7CF" d="M280 341c2.964 2.808 5.445 5.183 7 9-2 2-2 2-4.437 2.313-2.563-.313-2.563-.313-4.375-1.5-1.613-2.462-1.621-3.924-1.188-6.813 1.5-1.812 1.5-1.812 3-3"/><path fill="#3A453D" d="M306 98c3.515 1.9 5.896 3.566 8 7v2l3 1c.125 6.625.125 6.625-1 10l-2-1a177 177 0 0 1-1-7c-1.378-2.756-3.371-3.489-6-5-1-1-1-1-1.062-4.062z"/><path fill="#525D56" d="M322 143c2 0 2 0 3.727 1.54 5.176 5.687 5.176 5.687 5.71 9.96L331 157l-5 1v-3l-2 3c-1.263-5.075-2.27-9.728-2-15"/><path fill="#424C46" d="m369 128 3 1v10h-3l-1 3-3 1v-2h-3l1-4v3l3-2v-3.437c0-3.563 0-3.563 1.5-5.5z"/><path fill="#454E49" d="m293 110 2 1 1-1 2 1c-4.377 5.665-4.377 5.665-8.25 7.75-2.938 1.943-2.938 1.943-3.352 4.719A80 80 0 0 0 286 131h-1q-.33-3.435-.625-6.875l-.352-3.867L284 117l2-2h4l.938-1.937C292 111 292 111 293 110"/><path fill="#3E4942" d="M330 81c2.928.325 5.326.596 7.875 2.125 1.737 2.895 1.311 5.584 1.125 8.875l-4 2-.812-2.187c-1.12-2.854-1.12-2.854-2.813-5.438C330 84 330 84 330 81"/><path fill="#D6E2DC" d="M351 114c-2.272 4.677-5.458 7.574-10 10h-3l3-10c6.625-1.125 6.625-1.125 10 0"/><path fill="#3A453E" d="M271 81c-1.625 6.75-1.625 6.75-5 9v4h-3c-1.564-3.129-1.356-5.556-1-9 3.152-3.414 4.28-4 9-4"/><path fill="#3E4842" d="M203 160c2.625-.187 2.625-.187 5 0 .8 3.287 1.097 4.71 0 8-4.333 3-4.333 3-7 3-.25-7.625-.25-7.625 2-11"/><path fill="#D4DDD7" d="m279 46 1 4 7-2 1 2-1 2h-2l-.148 2.152-.227 2.785c-.07.917-.14 1.834-.21 2.778-.138.754-.274 1.508-.415 2.285l-2 1c-5.07-11.021-5.07-11.021-3-17"/><path fill="#38423C" d="m372 114 1 5q-2.685 1.004-5.375 2l-3.023 1.125C362 123 362 123 360 123c.25-3.38 1.281-4.281 3.75-6.75 3.266-2.261 4.42-2.813 8.25-2.25"/><path fill="#49524D" d="M264 68c.626 8.144.626 8.144-1.875 11.563C260 81 260 81 258 81c-1.444-2.889-1.377-4.796-1-8 4.13-5 4.13-5 7-5"/><path fill="#364542" d="m198 332 4 1-1 12-4 1c-1.57-1.57-1.17-3.143-1.187-5.312l-.043-2.364c.25-2.527.966-4.141 2.23-6.324"/><path fill="#C9D2CD" d="M226 118q2.188.212 4.375.438l2.46.246C235 119 235 119 237 120l1 3h-8v2h2c1.625 2 1.625 2 3 4l-2 1-3-1-1 5h-1l-.184-2.738-.254-3.575c-.08-1.171-.162-2.343-.246-3.55-.203-3.163-.203-3.163-1.316-6.137"/><path fill="#38443D" d="M231.813 114c4.147 1.301 6.115 2.928 9.187 6v3c-2.867-.573-3.861-.861-6-3l-3.5-.5c-3.5-.5-3.5-.5-5.5-2.5 1.852-2.572 2.578-3 5.813-3"/><path fill="#D0DBD7" d="m270 83 1 4 5 1-1 6h-1v-6c-3.988 2.393-4.646 4.667-6 9-1.5 1.875-1.5 1.875-3 3h-2l1-6h2l-1-5 3-1c1.219-2.504 1.219-2.504 2-5"/><path fill="#444C45" d="M393 160q2.514.428 5 1c2.125 6.625 2.125 6.625 1 10-3.653-1.25-4.78-1.671-7-5-.187-2.625-.187-2.625 0-5z"/><path fill="#38443D" d="M368 97c1.106 2.213 1.196 3.547 1.25 6l.078 2.125L369 107l-3 2 1-6h-2v8c-1.5-1.062-1.5-1.062-3-3-.52-4.081-.672-6.126 1.875-9.437C366 97 366 97 368 97"/><path fill="#DEE8E3" d="M340 87h1v8l-2 1c-.652 2.025-.652 2.025-1 4l-6-3c-.594-2.649-.742-5.292-1-8l4 1v4c2.526-2.363 3.888-3.665 5-7"/><path fill="#49544D" d="m333 66 1 4c-2.488 1.244-4.227 1.133-7 1.125l-2.687.008C322 71 322 71 320 70c3.02-6.041 7.187-5.066 13-4"/><path fill="#475048" d="M313 40c2.972 1.125 5.334 2.223 8 4 .188 3.625.188 3.625 0 7-4.75-.75-4.75-.75-7-3-.565-2.655-.738-5.291-1-8"/><path fill="#D4DFD9" d="m260 114 2 10c-4.834-1.209-6.443-2.605-10-6v-3c2.892-.826 4.887-1 8-1"/><path fill="#3A453E" d="m210 108 3 2c.438 3.375.438 3.375 0 7-2 2.438-2 2.438-4 4-2-2-2-2-2.312-5.937.056-2.825.08-3.755 1.812-6.063z"/><path fill="#3B473F" d="M309 65h4c.375 2.188.375 2.188 0 5-2.75 2.875-2.75 2.875-6 5-2.375-.187-2.375-.187-4-1l1-5 3-1z"/><path fill="#3D4841" d="M389 108c3.875 1.875 3.875 1.875 5 3 .141 2.67.042 5.324 0 8l-4 1c-2.236-3.353-2.173-3.907-1.625-7.687l.336-2.45z"/><path fill="#B9C4C0" d="M239 102c5.875 1.875 5.875 1.875 7 3 .375 2.375.375 2.375 0 5-2.25 1.938-2.25 1.938-5 3l-4-2z"/><path fill="#3E4841" d="M195 137c3.625-.187 3.625-.187 7 0-.312 2.375-.312 2.375-1 5-3.644 2.43-5.712 2.162-10 2a56.5 56.5 0 0 1 4-7"/><path fill="#3A4640" d="M215 103c3.313-.312 3.313-.312 7 0 1.938 2.5 1.938 2.5 3 5-1.876 1.876-4.498 1.18-6.992 1.23C216 109 216 109 213 107z"/><path fill="#49544D" d="M354 56h2c2.54 3.418 3.364 5.758 3 10-2.375.625-2.375.625-5 1l-2-2c.543-6.087.543-6.087 2-9"/><path fill="#34403A" d="M220 139v2h2v2l-3.375.25c-3.683.329-3.683.329-5.062 2.813L213 148l-2-1v-6c3.135-1.858 5.375-2.201 9-2"/><path fill="#3E4942" d="M398 137c3.25-.312 3.25-.312 7 0 2.438 2.375 2.438 2.375 4 5v2c-6.344.488-6.344.488-9.437-1.812C398 140 398 140 398 137"/><path fill="#DBE5DD" d="M353 123c2.48.827 3.689 1.378 4.875 3.75.17 3.07-.777 5.408-1.875 8.25l-2-2 1-2-7-2c2.75-4.875 2.75-4.875 5-6"/><path fill="#A6AFA9" d="M371 110c4.138.301 6.518.679 10 3-1 3-1 3-2.875 4L376 118c-1.71 1.541-1.71 1.541-3 3l-2-2h2c-.564-3.27-1.5-4.826-4-7z"/><path fill="#3B4640" d="M353 105c-.599 3.352-1.528 5.613-4 8-3.187.25-3.187.25-6 0 .188-2.312.188-2.312 1-5 3.32-2.602 4.693-3 9-3"/><path fill="#3F4641" d="M378 92c1.525 3.05 1.236 5.642 1 9-1.375 1.938-1.375 1.938-3 3h-2c-1.525-3.05-1.236-5.642-1-9 1.624-2.288 2.172-3 5-3"/><path fill="#555D58" d="M247 75h1l1 6 1.313-2.5L252 76h3v6l-1.937.875c-2.215.953-2.215.953-3.063 3.125v-2h-2v-2l-5-2 4-2z"/><path fill="#3C4641" d="M359 69c.49 7.217.49 7.217-1.875 11C355 82 355 82 353 82c-.49-7.217-.49-7.217 1.875-11C357 69 357 69 359 69"/><path fill="#444A43" d="M339 46c-1.5 2.938-1.5 2.938-4 6-2.765.839-5.074.902-8 1 .602-2.02 1.273-4.021 2-6 3.215-1.607 6.436-1.057 10-1"/><path fill="#384139" d="M288 40c-.75 6.625-.75 6.625-3 10-2.625.188-2.625.188-5 0 .188-3.312.188-3.312 1-7 2.418-1.922 3.885-3 7-3"/><path fill="#455450" d="M316 348c2.962.613 4.38 1.254 7 3 4.075.34 5.53.313 9-2l1 5c-3.62 1.206-6.192 1.323-10 1-5.684-3.053-5.684-3.053-7-7"/><path fill="#3F4943" d="M199 149c1.875 1.313 1.875 1.313 3 3-.312 2.188-.312 2.188-1 4-5.506-.49-5.506-.49-7.875-2.937C192 151 192 151 192 149c2.734-1.367 4.107-.847 7 0"/><path fill="#434B46" d="M406.188 148.375 409 149c-1.278 2.85-2.379 5.221-5 7-3.187-.312-3.187-.312-6-1 1.597-4.667 2.743-7.266 8.188-6.625"/><path fill="#384039" d="m263 46 9 1 2 6c-2.687.313-2.687.313-6 0-2.875-2.375-2.875-2.375-5-5z"/><path fill="#414944" d="M273 35c3.875 1.875 3.875 1.875 5 3 .47 5.412.47 5.412-1.5 7.875L275 47c-1.5-1.062-1.5-1.062-3-3-.43-6.138-.43-6.138 1-9"/><path fill="#30403D" d="m399 339 2 2 2-1v14h-4z"/><path fill="#484F4A" d="M396 157c2.438-.081 4.874-.14 7.313-.187l2.091-.077c5.114-.074 5.114-.074 7.576 1.65C414 160 414 160 414 162c-6.665.592-11.87-1.517-18-4z"/><path fill="#5C6761" d="m271 137 3 1c.313 3.313.313 3.313 0 7-2.5 1.938-2.5 1.938-5 3l-2-2c.303-3.842 1.525-6.094 4-9"/><path fill="#D6E2DD" d="m294 104 2 3a337 337 0 0 1-2.75 3.875l-1.547 2.18c-1.778 2.03-3.23 2.924-5.703 3.945.49-6.371.49-6.371 2.875-9.312C291 106 291 106 294 104"/><path fill="#49544D" d="M323 49h2c.286 8.571.286 8.571-2 12h2l-2 4h-5l.586-1.723c1.595-4.73 3.083-9.465 4.414-14.277"/><path fill="#404F4B" d="M278 261h14l-3 2c-4.173 3.479-8.236 7.079-12 11l-1-3c1.434-2.043 1.434-2.043 3.438-4.187l1.996-2.168L283 263l-5-1z"/><path fill="#B2BCB6" d="M268 105c4 2 4 2 5 4l2-2-1 11-2-1v-3l-3-1-2 2z"/><path fill="#D7E4DD" d="M368 142c.684 1.734.684 1.734 1 4-1.215 2.14-1.215 2.14-2.937 4.25l-1.715 2.14L363 154l-3-1c2.538-11 2.538-11 8-11"/><path fill="#434C45" d="M408.375 126.813 410 128c-1.562 2.438-1.562 2.438-4 5-3.75.813-3.75.813-7 1 .125-2.312.125-2.312 1-5 4.9-3.376 4.9-3.376 8.375-2.187"/><path fill="#404B45" d="M248 105c4.752.432 6.92 1.328 10 5l-1 2c-3.062.625-3.062.625-6 1-2.624-3.061-3-3.732-3-8"/><path fill="#414D46" d="M330 73c-1.171 3.333-2.116 5.864-5 8-2.687.688-2.687.688-5 1a295 295 0 0 1 .875-3.937l.492-2.215c1.353-3.95 5.073-2.925 8.633-2.848"/><path fill="#424B45" d="M327 35c1.5 1.125 1.5 1.125 3 3 .313 3.063.313 3.063 0 6l-2 2c-2.125-.375-2.125-.375-4-1-.37-6.523-.37-6.523 1.5-8.937z"/><path fill="#444F4A" d="M365 103h2l-.125 2.813c-.146 3.345-.146 3.345 2.125 6.187-5.625 4-5.625 4-9 4v2l-4 2c1.527-3.47 3.644-6.376 5.879-9.414 1.728-2.444 2.447-4.697 3.121-7.586"/><path fill="#39443F" d="m342 88 2 4h2l1-3 1 2h2v3l-1.75.125c-2.587.758-2.587.758-4.25 3.875-2 3-2 3-4.25 3.875L338 102v-3l5-2-1-2c-.04-2.333-.043-4.667 0-7"/><path fill="#727D79" d="M311 94c2.468 1.152 4.048 2.048 6 4 .339 6.323.339 6.323-1 9h-2c-4.062-6.154-4.062-6.154-3.75-10.437z"/><path fill="#3C4640" d="M327 88c3.875 1.875 3.875 1.875 5 3 .04 2 .043 4 0 6l4 2-1 3-2.312-1.875c-2.684-2.181-2.684-2.181-5.688-4.125-.408-2.712-.133-5.244 0-8"/><path fill="#38413B" d="M359 86c3.438.188 3.438.188 7 1 1.438 2.063 1.438 2.063 2 4-2.572 1.62-3.677 2.044-6.75 1.625L359 92a88 88 0 0 1-1-5z"/><path fill="#D3DEDA" d="M336 57h2l1 4c-4.875 4.875-4.875 4.875-8.04 5.227l-2.085-.102c-3.807-.473-3.807-.473-6.375 1.375L321 69c.385-2.233.895-3.837 2.125-5.75 2.867-1.911 5.496-1.367 8.875-1.25 1.676-.285 3.348-.6 5-1z"/><path fill="#CCD5CE" d="M273 44v2l5 1-1 2c-.233 6.085-.233 6.085 1 12-2 0-2 0-3.562-1.437C272.363 55.864 272.259 52.18 272 48l-3-1v-2c2-1 2-1 4-1"/><path fill="#39423B" d="m193.16 156.902 3.903.036 3.91.027L204 157c-5.208 4.15-10.371 5.323-17 5 2.41-4.982 2.41-4.982 6.16-5.098"/><path fill="#E3EEE7" d="M281 104h1c.081 1.937.14 3.875.188 5.813l.105 3.269c-.33 3.288-.85 3.873-3.293 5.918-.722 2.606-.722 2.606-1 5h-1c-.276-1.934-.52-3.873-.75-5.812l-.422-3.27L276 112c1.938-1.719 1.938-1.719 4-3 .804-2.599.804-2.599 1-5"/><path fill="#424B44" d="M210 93c3.312-.368 4.606-.298 7.313 1.75C219 97 219 97 219 101c-4.466.362-4.466.362-6.75-1.187-1.538-2.231-1.89-4.15-2.25-6.813"/><path fill="#343C35" d="M191 127c7.508.615 7.508.615 10 2.563l1 1.437-1 3c-2.187.313-2.187.313-5 0-2.812-2.375-2.812-2.375-5-5z"/><path fill="#D4DDD7" d="M309 89c2.68 4.019 2.156 6.242 2 11l-4-1-2 4-1-11 5 2z"/><path fill="#4A5450" d="m329 159 6 1-2 1v3c2.296 1.148 4.077 1.308 6.625 1.563l2.477.253L344 166v2c-6.737.11-13.3-.299-20-1v-1l2.875-.25c3.23-.4 3.23-.4 4.5-2.812L332 161h-3z"/><path fill="#434E46" d="M328 137c3.161 1.37 3.993 1.99 6 5-.25 2.625-.25 2.625-1 5l-2 1-3-2c-.293-2.164-.293-2.164-.187-4.625l.082-2.477z"/><path fill="#343D38" d="M338 107c2 2 2 2 2.266 4.46l-.016 2.915.016 2.898c-.267 2.738-.869 4.387-2.266 6.727h3l1 3h-6a585 585 0 0 1-.062-4.375l-.036-2.46C336 118 336 118 337 116c.225-1.537.408-3.08.563-4.625l.253-2.477z"/><path fill="#3E4843" d="M292 58c2.375-.187 2.375-.187 5 0 2.29 3.435 2.178 4.985 2 9-2.711-.374-3.82-.814-5.75-2.812C292 62 292 62 292 58"/><path fill="#45534D" d="M393 287h2c-.137 2.946-.299 5.202-2.297 7.477-4.483 3.795-7.657 4.653-13.39 4.586l-3.012-.028L374 299l3-1v-2l1.793.105c6.64.246 6.64.246 12.207-3.105 1.36-3.076 1.36-3.076 2-6"/><path fill="#404642" d="M403 162c2.915 1.074 4.778 1.778 7 4 .125 3.125.125 3.125 0 6-2.915-1.074-4.778-1.778-7-4-.125-3.125-.125-3.125 0-6"/><path fill="#38433D" d="M350 143h3c.37 6.4.37 6.4-1.5 9.438L350 154l-3-1v-6l2-1z"/><path fill="#E2ECE6" d="M201 129c8.571-.286 8.571-.286 12 2l-1 2-1-1c-2.5-.167-2.5-.167-5 0-1.233 1.008-1.233 1.008-1.098 3.066l.036 2.496.027 2.504L205 142h-2q-.507-2.123-1-4.25l-.562-2.39C201 133 201 133 201 129"/><path fill="#414B46" d="M243 97c6.055-.195 6.055-.195 8 0 2 2 2 2 2.125 4.625L253 104c-7.816-1.917-7.816-1.917-10-5z"/><path fill="#3A4740" d="M308 118c.366 6.46.366 6.46-1.312 8.938C305 128 305 128 302 128c-.227-3.328-.322-5.418 1.313-8.375C305 118 305 118 308 118"/><path fill="#444D48" d="M197 108c4.75.75 4.75.75 7 3 .125 3.625.125 3.625 0 7-5.875-3.875-5.875-3.875-7-5a100 100 0 0 1 0-5"/><path fill="#E2EDE6" d="m333 101 3 1c1.005 3.015 1.103 5.042 1.063 8.188l-.028 2.73L337 115l-3 1c-1.286-7.429-1.286-7.429 0-11l-2-1z"/><path fill="#C1CCC7" d="M254 95h2l2 5h-2v5l4 2v5h-2l-.75-1.812c-1.087-2.348-1.087-2.348-3.437-3.376C252 105 252 105 251.93 102.849c.672-6.45.672-6.45 2.07-7.848"/><path fill="#47514B" d="M351.848 96.902 358 97c-1.37 3.161-1.99 3.993-5 6-2.687.125-2.687.125-5 0 1.068-5.95 1.068-5.95 3.848-6.098"/><path fill="#394340" d="M391 93c-1.466 5.621-1.466 5.621-3.937 7.375C385 101 385 101 382 101c.331-3.062.6-4.6 2.813-6.812C387 93 387 93 391 93"/><path fill="#3F4640" d="M229.848 77.902 236 78l1 5-6 1-4-5c1-1 1-1 2.848-1.098"/><path fill="#323D37" d="m236 153 5 1-1 3c-1.996.773-1.996.773-4.437 1.375-3.853 1.058-3.853 1.058-6.125 4.313L229 165h-1c-1.125-5.625-1.125-5.625 0-9h8z"/><path fill="#37413C" d="M382 154c1.46.06 2.918.149 4.375.25l2.46.14c2.165.61 2.165.61 3.454 2.657L393 159c-1.625.054-3.25.093-4.875.125l-2.742.07C383 159 383 159 381 157z"/><path fill="#4B544D" d="M342 141c.333 3.66.462 5.395-1.812 8.375C338 151 338 151 335 151c-.375-2.187-.375-2.187 0-5 4.5-5 4.5-5 7-5"/><path fill="#404944" d="M366.625 122.875 370 123c-1.37 3.161-1.99 3.993-5 6-3.187.125-3.187.125-6 0 2.78-5.958 2.78-5.958 7.625-6.125"/><path fill="#4D5651" d="M333 112c-.37 7.385-.37 7.385-3.562 10.5L327 124c-1-1-1-1-1.062-4.062L326 117h2l.875-1.937c1.078-1.976 1.708-3.063 4.125-3.063"/><path fill="#D0D9D6" d="M282 74h1l.332 1.793c1.034 5.185 1.034 5.185 3.356 9.894 1.76 3.102 1.174 4.943.312 8.313h-2l-.375-3.437L284 87l-2-1c-1.35-4.173-.752-7.74 0-12"/><path fill="#434D45" d="M254 65c1.381 2.763 1.19 4.947 1 8l-2 2h-3c-1.344-5.377-1.344-5.377.313-8.375C252 65 252 65 254 65"/><path fill="#3F4741" d="M255 212v1l7 1v1h-23l1-2c5.05-.87 9.886-1.107 15-1"/><path fill="#3C433E" d="M217 147c2.25-.312 2.25-.312 5 0 4 4.108 4 4.108 4 7-3.375-.312-3.375-.312-7-1-2-3-2-3-2-6"/><path fill="#39433C" d="M202 146h7l3 6c-6.46.366-6.46.366-8.937-1.312C202 149 202 149 202 146"/><path fill="#3E4842" d="M268 132c.125 3.375.125 3.375 0 7l-2 2c-2.125-.375-2.125-.375-4-1-.365-4.497-.365-4.497 1.313-6.812C265 132 265 132 268 132"/><path fill="#DCE6DF" d="m228 128 1.465 6.055c.483 2.004.483 2.004 1.535 3.945-4.45.36-4.45.36-6.812-1.187-1.555-2.373-1.413-4.033-1.188-6.813 3.875-2 3.875-2 5-2"/><path fill="#49534D" d="M230 123c7.442-.366 7.442-.366 10 1.313 1 1.687 1 1.687 1 4.687-5.625.25-5.625.25-9-2v-2h-2z"/><path fill="#434E48" d="m335 121 2 1v4l3 2-3.812.875c-3.042.698-4.495 1.33-7.188 3.125 0-4.259 1.217-6.171 4.125-9.25z"/><path fill="#38443D" d="M225 118c1.5 1.063 1.5 1.063 3 3 .375 3.563.375 3.563 0 7l-3 2c-1.951-2.87-1.99-4.126-1.687-7.687C224 119 224 119 225 118"/><path fill="#CED8D2" d="M244 119c-.25 1.875-.25 1.875-1 4-2.062 1.25-2.062 1.25-4 2l-1-2h3c-2.087-4.064-3.944-5.922-8-8l-2.312-1.187L229 113c5.356-2.571 10.93 2.744 15 6"/><path fill="#46524A" d="M233 97c3.161 1.37 3.993 1.99 6 5-.375 2.688-.375 2.688-1 5l-3 1c-3.077-5.292-3.077-5.292-2.687-8.875z"/><path fill="#3D4943" d="M277 97c.227 2.804.34 4.462-1.187 6.875-1.813 1.125-1.813 1.125-4.5.813L269 104c.188-1.812.188-1.812 1-4 4.179-3 4.179-3 7-3"/><path fill="#E0E9E3" d="m256 77 2 2c-.023 2.82-.023 2.82-.375 6.125l-.336 3.32L257 91h-2c-4-4.47-4-4.47-4-7l1.938-1.375c2.33-1.836 2.666-2.754 3.062-5.625"/><path fill="#363D37" d="M369.563 77.938 373 78l1 2c-2.386 2.888-4.29 3.62-8 4l-2-1c1.126-4.985 1.126-4.985 5.563-5.062"/><path fill="#DEE7E2" d="M265 62c9.73-.92 9.73-.92 12.844 1.336C279.188 65 279.188 65 281 68h-3l-2-2c-2.688-.27-5.291-.087-8 0l-1 2z"/><path fill="#717974" d="m223 135 3 3-1 3 3-1v3h-6v-2h-2v-2l-7 1 1-2c2.063-.391 4.094-.507 6.188-.656L222 137z"/><path fill="#4A544D" d="M333 131h2c2.188 2.188 2.188 2.188 4 5-.25 2.813-.25 2.813-1 5-3.875-.875-3.875-.875-5-2-.141-2.67-.042-5.324 0-8"/><path fill="#DEE7E1" d="M378 129c.364 5.455.364 5.455-1.25 7.875C375 138 375 138 371 138l1-4 .375-2.187L373 130c3-1 3-1 5-1"/><path fill="#3D4942" d="m375 118 2 1q.079 2.187.125 4.375l.07 2.46C377 128 377 128 375 130c-2.208-1.748-2.94-2.607-3.375-5.437.435-2.976 1.4-4.34 3.375-6.563"/><path fill="#515A55" d="M347 74c2 1.75 2 1.75 4 4v4h2v2h-2l-1 2v-2l-4-2c-.125-5.75-.125-5.75 1-8"/><path fill="#E0E9E4" d="M400 143c1.691.09 3.38.246 5.063.438l2.785.308L410 144a97 97 0 0 1-8.25 5.688c-.706.436-1.413.873-2.14 1.324L398 152c.875-7.875.875-7.875 2-9"/><path fill="#3F4842" d="M259 141c2.468 1.152 4.048 2.048 6 4 .125 3.125.125 3.125 0 6-1.875-.312-1.875-.312-4-1-2.29-3.435-2.178-4.985-2-9"/><path fill="#444C45" d="m217 117 3 1c.125 5.75.125 5.75-1 8h-4c-.687-2.25-.687-2.25-1-5 1.438-2.312 1.438-2.312 3-4"/><path fill="#424A45" d="M403 108c.25 2.813.25 2.813 0 6-1.875 1.875-1.875 1.875-4 3h-2c-.365-5.478-.365-5.478 1.313-7.875C400 108 400 108 403 108"/><path fill="#39423D" d="M310 56c.412 3.603.154 4.784-2 7.813L306 66l-3-1 2-3h-2c1.475-3.403 2.856-6 7-6"/><path fill="#414A43" d="M310 40c.125 3.375.125 3.375 0 7l-2 2h-4c-.25-2.25-.25-2.25 0-5 3.243-4 3.243-4 6-4"/><path fill="#39413C" d="M193 163h4c.313 2.25.313 2.25 0 5-4.216 4-4.216 4-6 4-.125-3.375-.125-3.375 0-7z"/><path fill="#333C39" d="M333 163h12v2l4-1c-1.113 1.52-1.113 1.52-3 3-2.918.074-2.918.074-6.187-.312l-3.293-.364L334 166z"/><path fill="#3E4742" d="M262.938 153.25c2.39.87 3.515 1.74 5.062 3.75v3c-5.492-.61-5.492-.61-7.875-2.437C259 156 259 156 259 154c2-1 2-1 3.938-.75"/><path fill="#4F5A53" d="m276 144 3 1-1 5c-4.75 1-4.75 1-7 1v7h-1v-8l1.875-.75c2.476-1.456 3.076-2.628 4.125-5.25"/><path fill="#3E4741" d="M230 128c2.5 1.125 2.5 1.125 5 3 .313 3.188.313 3.188 0 6l-6-1q-.061-3.5 0-7z"/><path fill="#495750" d="m312 79 4 5c-3.182 6.59-3.182 6.59-6 8-.193-4.824.243-8.496 2-13"/><path fill="#3E4642" d="m292 45 1 2a78 78 0 0 0 5 2v7c-4.875-2.875-4.875-2.875-6-4q-.062-3.5 0-7"/><path fill="#566560" d="M397 335c4 1 4 1 5.25 3.063L403 340l-3 2c-.585 2.886-.585 2.886-.687 6.125l-.2 3.32L399 354h-1z"/><path fill="#3D4A44" d="M382 117c2 1.125 2 1.125 4 3 .25 3.188.25 3.188 0 6h-4c-1-1-1-1-1.125-4.5C381 118 381 118 382 117"/><path fill="#36413A" d="M283 74c4.228 3.083 4.228 3.083 6 5 .375 2.813.375 2.813 0 5h-2l-2 1c-2.326-3.634-2.163-6.77-2-11"/><path fill="#39423D" d="M242 69c1.938.563 1.938.563 4 2 .75 3.625.75 3.625 1 7l-4 1c-1.607-3.215-1.057-6.436-1-10"/><path fill="#E3EDE7" d="M303 68a416 416 0 0 1-.375 4.813c-.07.893-.14 1.786-.21 2.707C302 78 302 78 300 81c-1.138-4.266-2-7.565-2-12 3.875-1 3.875-1 5-1"/><path fill="#3F4742" d="M369 63c-.75 5.75-.75 5.75-3 8h-4c-.312-2.312-.312-2.312 0-5 2.383-1.819 3.958-3 7-3"/><path fill="#323C38" d="m254 162 14 1c-3.913 2.935-4.727 3.39-9.25 3.688l-2.703.199L254 167z"/><path fill="#3A443E" d="M239 133h2c1.607 3.215 1.057 6.436 1 10l-5 2c.553-4.03 1.156-8.02 2-12"/><path fill="#D8E4DE" d="M335.945 127.805 342 128l-3 7-4-2v-2l-3-1c2-2 2-2 3.945-2.195"/><path fill="#333F39" d="M261 107h2v10l-3-2a192 192 0 0 0-7-2c1.813-1.062 1.813-1.062 4-2l3 1z"/><path fill="#495753" d="m350 265 2 1a366 366 0 0 1-6 17l-2-1c1.662-5.857 3.47-11.459 6-17"/><path fill="#3B4742" d="m339.688 210.438 3.574.308L346 211c-3.737 2.491-5.745 2.207-10.187 2.125l-3.856-.055L329 213c2.13-4.26 6.617-2.925 10.688-2.562"/><path fill="#E3EBE4" d="M398 159v1l-7 1-1 6h-2l-4-7c4.724-.652 9.22-1.12 14-1"/><path fill="#D5E0D8" d="m374 150 1 4c-2 2-2 2-5 2.188-3-.188-3-.188-5-1.188v-2z"/><path fill="#DDE9E3" d="M367 129v10l-4 1-1-10c2-1 2-1 5-1"/><path fill="#353E39" d="M293 117c4.923 4.185 4.923 4.185 5.313 8.313L298 128c-3.875-1.875-3.875-1.875-5-3-.141-2.67-.042-5.324 0-8"/><path fill="#DDEAE2" d="M267 102c1.234 2.467 1 4.268 1 7l1 2h-2v6h-2l-1-13z"/><path fill="#434D48" d="m286 81 2 2 2-1c1.174 3.52 1.201 6.306 1 10l-2 2a479 479 0 0 1-1.5-4.25l-.844-2.39C286 85 286 85 286 81"/><path fill="#3E4541" d="m232 63 7 3v5c-2.375-.312-2.375-.312-5-1-2-3-2-3-2-7"/><path fill="#4A524C" d="M276 48c2.771 2.346 3.52 4.148 4.188 7.688l.48 2.449L281 60h-2v2c-2-1-2-1-2.621-2.766-.403-2.376-.477-4.576-.442-6.984l.028-2.422z"/><path fill="#43524D" d="M280 327c7.304-.365 7.304-.365 10.5 1.313C292 330 292 330 292 333l-1.5-.875c-3.418-1.538-6.85-2.273-10.5-3.125z"/><path fill="#495853" d="M205 327c4.852-.388 8.14-.437 12.563 1.813L220 331v3l-1.562-.875c-2.554-1.262-2.554-1.262-5.938-2.062-3.208-.974-5.02-1.881-7.5-4.063"/><path fill="#323E3A" d="m288 201 1 4c-9.25 6.307-9.25 6.307-16 6v-2l3.563-.625c4.901-1.188 7.92-3.88 11.437-7.375"/><path fill="#454E48" d="M257 129h3c1.125 6.75 1.125 6.75 0 9l-4-2z"/><path fill="#E2EBE7" d="m234 129 5 1-1 9-3 1-2-2 1-1a59 59 0 0 0 .063-4.062z"/><path fill="#DDE7DE" d="M375 116h5c1 1 1 1 1.098 2.848L381 125l-3 1z"/><path fill="#424942" d="M300 32c1.5 1.125 1.5 1.125 3 3 .188 3.188.188 3.188 0 6h-4c-.625-3.375-.625-3.375-1-7z"/><path fill="#C2CEC7" d="m360 129 4 1h-2l1 7-1-4-2 1c-.658 3.03-.658 3.03-1 6h-2l-1-7 3-1z"/><path fill="#424B44" d="M341 129h3c.625 2.813.625 2.813 1 6l-2 3-3-1c-.125-5.75-.125-5.75 1-8"/><path fill="#414B44" d="M277 104c2.125.375 2.125.375 4 1l-1 5-5 1c-.125-2.375-.125-2.375 0-5z"/><path fill="#BAC3BD" d="m325 46 2 1-.187 2.375L327 52l3 2a340 340 0 0 1-2.375 3.5l-1.336 1.969L325 61h-2l.5-1.71c.524-2.4.566-4.466.5-6.915-.11-4.154-.11-4.154 1-6.375"/><path fill="#35413A" d="m273 150 3 1 1 7h-2v-2l-2 1-2 1v-7z"/><path fill="#57635F" d="m225 258.813 2.625-.043C230 259 230 259 233 261c-2.88.96-4.586 1.078-7.562 1-3.35-.13-3.35-.13-6.438 1v-2l-2-1c2.927-.976 4.947-1.165 8-1.187"/><path fill="#E0E9E1" d="m204 160-1.375 2.25A89 89 0 0 0 199 169l-1-7h-2v-2c3.053-.981 4.947-.981 8 0"/><path fill="#35413A" d="m223 92 4 2v6h-5q-.061-3.5 0-7z"/><path fill="#CED7D2" d="M291 45h1l.125 3.25c.521 3.986.521 3.986 3.938 6.188L299 56l-1 4c-6.648-3.923-6.648-3.923-8-8.062 0-2.564.166-4.528 1-6.938"/><path fill="#424C45" d="M348.563 136.938 351 137c-.312 1.875-.312 1.875-1 4-3 2-3 2-6 2 1.073-5.977 1.073-5.977 4.563-6.062"/><path fill="#414741" d="M406 118v3c-1 1-1 1-3.937 1.125C399 122 399 122 397 121v-2c2.957-1.478 5.742-1.06 9-1"/><path fill="#414E47" d="m355 112-1 6-6 1c2.395-7 2.395-7 7-7"/><path fill="#3C4843" d="M325 91c-.376 2.782-.673 4.588-2.437 6.813C321 99 321 99 319 99c-.365-4.497-.365-4.497 1.313-6.812C322 91 322 91 325 91"/><path fill="#3A433E" d="m258 81 3 1v4h-2v9c-1.847-3.694-2.258-4.828-2.187-8.687l.019-2.387C257 82 257 82 258 81"/><path fill="#39443F" d="M331.625 55.875 335 56l1 2c-3.402 2.094-6.053 2.18-10 2l-1 2c.91-4.546 1.673-5.954 6.625-6.125"/><path fill="#454F4A" d="m228 160 1 6c-3.75 3-3.75 3-6 3v-7c3.875-2 3.875-2 5-2"/><path fill="#D6DED9" d="M384 148h4c-1.045 3.25-2.591 4.569-5.437 6.25C379 156 379 156 376 156v-2l2.313-.75c2.793-1.037 2.793-1.037 4.25-3.375z"/><path fill="#E4EEE6" d="M208 144v1l-3.437.375L201 146l-1 2h-3v-2l-6-1v-1c6.414-1.93 10.613-2.09 17 0"/><path fill="#353E38" d="M382 140h2v2h2v-2l3 1v7l-3-2v-3l-4 1-1-2z"/><path fill="#35413A" d="m311 123 2 3c-.79 2.49-1.835 4.67-3 7h-2c-.37-6.523-.37-6.523 1.5-8.937z"/><path fill="#3B453E" d="M289 123c2 1.063 2 1.063 4 3 .25 3.688.25 3.688 0 7l-4-2z"/><path fill="#3E453D" d="M198.438 117.875C202 118 202 118 204 119v2l-8 1-2-3c1-1 1-1 4.438-1.125"/><path fill="#3F4842" d="M246 112c2.375.688 2.375.688 5 2 1.313 2.625 1.313 2.625 2 5-2.375.188-2.375.188-5 0-2-3-2-3-2-7"/><path fill="#424D45" d="M356 103h3c.125 6.75.125 6.75-1 9h-2c-1.366-2.732-1.128-4.982-1-8z"/><path fill="#404945" d="M274 88v8h-5c-.366-4.517-.366-4.517 1.375-6.812C272 88 272 88 274 88"/><path fill="#525C57" d="m265 56 1 2h2v3h6v2c-6.364.49-6.364.49-9.437-1.875C263 59 263 59 263 57z"/><path fill="#515A54" d="M252 145c3.165.34 3.976.972 6.125 3.438L260 151l2 2-4 1-2-4-2 1z"/><path fill="#454F47" d="m353 134 3 1c1.188 3.063 1.188 3.063 2 6l-3 2-2-1z"/><path fill="#3B463E" d="M202 123h4l1 3 2 2h-8c0-4 0-4 1-5"/><path fill="#3D4940" d="M299 112h2c1.381 2.763 1.19 4.947 1 8l-2 2-2-2c.033-2.729.564-5.297 1-8"/><path fill="#404B46" d="m313 105 1 2 3 1c.125 6.625.125 6.625-1 10l-2-1q-.579-3.489-1-7l-1-3z"/><path fill="#424D46" d="m320 104 5 1 1 4h-2v2l-4-2z"/><path fill="#C4CFCA" d="M321.563 88.938 324 89l1 2-2.375 1.188c-2.977 2.055-3.613 3.409-4.625 6.812h-1q.212-2.22.438-4.437c.08-.824.162-1.648.246-2.497.47-3.066.724-3.052 3.878-3.129"/><path fill="#E2EBE3" d="m249 63 4 2-5 7-4-4z"/><path fill="#49524C" d="M215 164h4c.75 1.75.75 1.75 1 4-1.812 2.25-1.812 2.25-4 4h-2v-5h2z"/><path fill="#DAE4DC" d="M200 146c2.563 2.25 2.563 2.25 5 5-.187 2.313-.187 2.313-1 4l2 1h-4l-.875-2.312c-1.088-2.838-1.088-2.838-3.125-5.688h2z"/><path fill="#DCE8E1" d="M358 140c1.467 3.815.433 6.29-1 10l-3-1c-.25-2.812-.25-2.812 0-6 2-1.875 2-1.875 4-3"/><path fill="#C8D2CC" d="m343 140 .438 1.813c.45 1.749.99 3.474 1.562 5.187-1 3-1 3-3.062 4.188L340 152l-2-2h2l.402-1.934.536-2.504.527-2.496C342 141 342 141 343 140"/><path fill="#38423B" d="M250 137c2.375-.125 2.375-.125 5 0 2 2 2 2 2 5-2.375.125-2.375.125-5 0l-2-2z"/><path fill="#39433E" d="M246 134h2v8h-4c-.125-2.875-.125-2.875 0-6z"/><path fill="#BDC6C0" d="M394 110h3v7l3-1c2.188.938 2.188.938 4 2-5.415 1.23-5.415 1.23-8.375.063L394 117z"/><path fill="#C1CCC6" d="m265 89 3 1c.75 2.75.75 2.75 1 6-1.812 2.375-1.812 2.375-4 4h-2l1-6h2z"/><path fill="#3C463F" d="M294 87h3c.125 2.375.125 2.375 0 5l-2 2h-3c-.125-2.375-.125-2.375 0-5z"/><path fill="#363F39" d="M271 73c5.75-.125 5.75-.125 8 1v4c-2.875-.25-2.875-.25-6-1-1.375-2.062-1.375-2.062-2-4"/><path fill="#4B564F" d="m307 68 2 4-2 3-4-1 1-5z"/><path fill="#464D48" d="m295 41 6 2v5c-2.867-.573-3.861-.861-6-3z"/><path fill="#525C59" d="m272 154 1 2h2l1 5-4-2v2l-6 2-1-3c3.75-1.125 3.75-1.125 6 0z"/><path fill="#39423D" d="m383 147-1 5c-1.937.563-1.937.563-4 1-1-1-1-1-2-3 1.596-3.191 3.64-3 7-3"/><path fill="#47524E" d="M240 142c2 1 2 1 2.75 3.188.302 3.396-.507 5.668-1.75 8.812l-3-1h2l-2-9h2z"/><path fill="#4B554E" d="m387 140-1 2h-2v-2h-2l-1 2-6-1 1-2c4.308-.975 7.238-1.558 11 1m-9 2 4 1-2 1z"/><path fill="#CBD4CD" d="M197 123h5l-.625 1.875L201 127l2 2c-3 1-3 1-5.187.063L196 128z"/><path fill="#39433A" d="m242 103 4 2c.188 2.375.188 2.375 0 5l-3 2c-1.478-2.957-1.06-5.742-1-9"/><path fill="#C8D2CB" d="m369 102 1 4c2.33-.959 2.33-.959 4-4l1 5c-5.75 3-5.75 3-8 3z"/><path fill="#CFD9D1" d="m390 95 2 3-2.062 1.75L388 102c.136 2.219.136 2.219 1 4l-6-3 2-1v-2l3-1c1.209-2 1.209-2 2-4"/><path fill="#3E4943" d="m304 87 5 2v5c-3.875-.875-3.875-.875-5-2a100 100 0 0 1 0-5"/><path fill="#D5DFD9" d="m308 62 3 1c-1.812 3-1.812 3-4 6h-3l-1 2-1-4 2.438-1.375c2.65-1.372 2.65-1.372 3.562-3.625"/><path fill="#E8F1EA" d="M242 58c2.004 6.011.903 11.172-1 17l-4-3 2-1a95 95 0 0 0 1.625-6.562c.26-1.198.52-2.396.79-3.63z"/><path fill="#AA8956" d="m244 35 2 2-9 7-3-2z"/><path fill="#E8EFEA" d="m226 151 8 1 1 3h-8z"/><path fill="#3F4943" d="m212 140 5 3-2 1c-1.134 2.017-1.134 2.017-2 4l-2-1c-.043-2-.04-4 0-6z"/><path fill="#E4F1EB" d="M274 138c2.438.75 2.438.75 5 2 .813 2.125.813 2.125 1 4a88 88 0 0 1-5 1c-1-1-1-1-1.062-4.062z"/><path fill="#B1BAB3" d="m380 125 3 1v5l3-3-1 4 3 2-7 1z"/><path fill="#C7CFC9" d="m348 126 1 2 3 2h-5l-1 2-2-1v-2l-4-2z"/><path fill="#E1EBE3" d="m350 125 6 1-1 4-7-1z"/><path fill="#B9C4BE" d="M297 115h1c1.792 5.166 2.12 8.51 1 14h-2l-1 2-1-4 3 1c-.95-3.354-1.897-6.692-3-10h2z"/><path fill="#C8D2CC" d="M356 114h3c-1.01 2.608-1.685 3.804-4.094 5.3l-2.406 1.013-2.406 1.05C348 122 348 122 346 121c2.565-2.565 4.477-2.54 8-3v-2h2z"/><path fill="#575F59" d="m334 105-1 5h-3l-.375-1.937L329 106l-2-1c3.01-.934 3.867-1.044 7 0"/><path fill="#C8D2CC" d="M355 85c2.125.938 2.125.938 4 2l-1 3h-9c3.75-3.875 3.75-3.875 6-5"/><path fill="#424943" d="M237.188 87.375 239 88v2l2 2-9-1v-2c3-2 3-2 5.188-1.625"/><path fill="#CDD6D1" d="M244 85c3.134 1.072 6.062 2.477 9 4v2c-1.46-.06-2.918-.149-4.375-.25l-2.46-.14C244 90 244 90 242.71 87.952L242 86z"/><path fill="#424D48" d="m319 82 3 1v2h2v3h-7z"/><path fill="#3C4540" d="M364.563 72.938 367 73c-.125 1.875-.125 1.875-1 4-3.062 1.25-3.062 1.25-6 2 1.073-5.977 1.073-5.977 4.563-6.062"/><path fill="#E2ECE7" d="m287 69 7 4v2l-4 2v-2l-3-1z"/><path fill="#31413E" d="m288 348 2 3c-1.904 1.904-3.334 2.935-6.047 3.2-1.985-.011-3.97-.1-5.953-.2 2.198-2.198 3.175-2.459 6.125-3.125L288 350z"/><path fill="#505A55" d="M349 144v3h-2v5c-3 0-3 0-6-1l3-1 1-5z"/><path fill="#E1EDE8" d="M234 143c3.161 1.37 3.993 1.99 6 5 .125 2.688.125 2.688 0 5h-3l-.375-3.437L236 146l-2-1z"/><path fill="#D6E0DB" d="m242 139 1 4h3v6h-3c-1.158-3.473-1.069-6.36-1-10"/><path fill="#38433B" d="M271 137h2v7h-2l-1 2c-.625-3.375-.625-3.375-1-7z"/><path fill="#545C57" d="M226 107c2.729.033 5.297.564 8 1l1 5-11-4z"/><path fill="#C0CAC3" d="M221 96h1c1.129 3.311 2.213 6.59 3 10l-3-2a168 168 0 0 0-6-2l3-1c1.219-2.504 1.219-2.504 2-5"/><path fill="#C5D0CA" d="M327 84c2.438.813 2.438.813 5 2l1 3-3 1-3-2v7h-1c-1.23-6.4-1.23-6.4-.062-9.437z"/><path fill="#3D453E" d="m235 73 5 1 1 5c-2.867-.573-3.861-.861-6-3z"/><path fill="#C5CFC8" d="m255 70 1 2 2 1-2 8h-1v-5l-4 1-1-2 1.938-.812C254.33 73.113 254.33 73.113 255 70"/><path fill="#49544F" d="M275 67c2.169.506 4 1 6 2 .625 2.563.625 2.563 1 5l-3-2c-1.99-.39-3.99-.732-6-1z"/><path fill="#3B453C" d="m288 65 5 1-1 5-4-1z"/><path fill="#404944" d="m269 47 4 1 1 5h-6v-3h2z"/><path fill="#444D45" d="m305 130 2 1-1 7h-4c1.875-6.875 1.875-6.875 3-8"/><path fill="#ABB6AF" d="M308 127v6h2l1-3 1 2-1 2h-4c-2-3-2-3-3-5l-2-1c3-1 3-1 6-1"/><path fill="#57615B" d="M208.563 130.938 211 131l1 3h5l-6 3-2-3c-2.05-1.192-2.05-1.192-4-2 1-1 1-1 3.563-1.062"/><path fill="#C2CBC5" d="M236 129c2.313-.312 2.313-.312 5 0 1.813 2.5 1.813 2.5 3 5l-3 1v-2h-2v5h-1l.125-3.375c.286-3.669.286-3.669-2.125-5.625"/><path fill="#C7D2CD" d="M306 117h4c.813 3.25.813 3.25 1 7-2.437 2.438-2.437 2.438-5 4l2-10z"/><path fill="#4C5752" d="M234 116c2.915 1.074 4.778 1.778 7 4v3c-2.798-.386-3.82-.801-5.75-2.937C234 118 234 118 234 116"/><path fill="#757F78" d="M326 107c1.125 3.75 1.125 3.75 0 6-.228 1.87-.41 3.747-.562 5.625l-.254 3.04L325 124h-1l-1-16z"/><path fill="#4B514C" d="m365 87 3 2v2c-2.572 1.62-3.677 2.044-6.75 1.625L359 92l2-2h3z"/><path fill="#4D5652" d="M356 70c1.545 3.09.584 5.672 0 9l-1 3h-2c-.37-7.385-.37-7.385 1.5-10.5z"/><path fill="#C5D0C9" d="M321 71c2.602-.293 2.602-.293 5.625-.187l3.04.082L332 71c-2.59 2.59-4.027 2.374-7.625 2.625l-3.04.227L319 74z"/><path fill="#A1824A" d="m233 43 3 1-8 8-2-2z"/><path fill="#546360" d="M216 343h1l.375 3.438L218 350l2 1-1 3v-2l-5 2-1-3 2-1c.407-2.322.744-4.657 1-7"/><path fill="#707974" d="M234 148c1.563 1.75 1.563 1.75 3 4-.312 2.25-.312 2.25-1 4h-8v-1h7l-1-2c-3.03-.658-3.03-.658-6-1v-1h6z"/><path fill="#5B635E" d="m211 147 5 5-2 3v-2h-7l1.438-1.312c1.799-1.711 1.799-1.711 2.562-4.688"/><path fill="#E5F0EB" d="m327 135 2 1-2 7-2-2-1 2-2-1c1.25-3.653 1.671-4.78 5-7"/><path fill="#3E4841" d="m243 124 2 1-1.125 1.75c-1.167 2.25-1.167 2.25 0 4.5L245 133l-4-2v-3l-4-1a101 101 0 0 1 6-3"/><path fill="#BBC6BF" d="M228 122h1v5h2l1-2 3 4-2 1-3-1-1 5h-1z"/><path fill="#CED8D0" d="M206 113h1q.543 1.935 1.063 3.875l.597 2.18C209 121 209 121 208 123l-7-1 1.938-.562c2.483-1.38 2.483-1.38 2.812-5.063z"/><path fill="#E9F3EC" d="M319 103h1l2 9h-2l1 6-2 1z"/><path fill="#464E47" d="M373 112c5.75-.125 5.75-.125 8 1l-1 3-6-1z"/><path fill="#474D49" d="M221 112h6l-2 4h-5z"/><path fill="#E7F2EB" d="m201 108 6 2a402 402 0 0 1-.375 4.938c-.07.916-.14 1.833-.21 2.777-.138.754-.274 1.508-.415 2.285l-2 1-.148-2.082-.227-2.73c-.07-.894-.14-1.787-.21-2.708-.281-2.724-.281-2.724-2.415-5.48"/><path fill="#364038" d="M268 105c1.938.688 1.938.688 4 2 .75 2.625.75 2.625 1 5-3.875-.875-3.875-.875-5-2a100 100 0 0 1 0-5"/><path fill="#A9B1AE" d="m289 98 2 3-3 6h-2l-1-5 3-1z"/><path fill="#D4E1DB" d="m331 89 4 1 1 5h-2v2h-2z"/><path fill="#E2E8DF" d="m280 24-1.875.813C275.7 25.956 275.7 25.956 274 29l-5-1v-2c3.83-1.802 6.781-2.196 11-2"/><path fill="#3C423C" d="m411 158 3 2v2c-3.375.125-3.375.125-7 0l-2-2c2.813-1.125 2.813-1.125 6-2"/><path fill="#C7D1CC" d="m223 142 3 2h-2l3 7-2 1c-3-3.625-3-3.625-3-7l-2-2z"/><path fill="#2F3934" d="M368 138h7v3h6v1q-2.125.04-4.25.063l-2.39.035c-2.267-.094-4.189-.466-6.36-1.098z"/><path fill="#333A33" d="M295 129c2.354 2.55 2.983 3.71 3.188 7.25L298 139l-3-1z"/><path fill="#E0E9E5" d="m245 131 7 3-1.687.375c-2.534.685-4.892 1.616-7.313 2.625l-1-3z"/><path fill="#E7F0E9" d="m387 120 2 1c-1.317 4.609-3.152 8.141-6 12h-1v-6l1.938-.687c2.334-1.166 2.334-1.166 2.812-3.938z"/><path fill="#E3EEE9" d="m298 110 2 2-1 3h-2v3l-4-1z"/><path fill="#49544E" d="M197 108h3a85 85 0 0 1 2 7h-3c-2-2-2-2-2.125-4.625z"/><path fill="#CAD6CE" d="M352 108h2v2h2v2l2 1h-9c1.375-2.5 1.375-2.5 3-5"/><path fill="#CFD8D5" d="M348.25 104.313 350 105l-2.937 1.813c-3.294 1.898-3.294 1.898-4.063 5.187h-2c.332-3.075.631-4.618 2.813-6.875C346 104 346 104 348.25 104.313"/><path fill="#B7C2BB" d="M360 100c2.762 2.762 2.579 5.207 3 9h-4v-6l-2-1z"/><path fill="#E3EFE7" d="M369 98h3l1 7-3 1z"/><path fill="#454F47" d="m307 76 3 1v5h-4z"/><path fill="#424D44" d="m291 76 4 1-1 5h-3z"/><path fill="#B19257" d="M274 24c-2.9 1.934-3.897 2.301-7.187 2.625L263 27v-2c4.074-2.037 6.59-2.026 11-1"/><path fill="#374641" d="m371 327 5 1-1 4-4-1z"/><path fill="#2C3832" d="m325 151 2 4-1 3c2.51-1.255 2.871-2.5 4-5v6l-5 1z"/><path fill="#C3CFC8" d="m351 142 4 1-.062 2.25c.055 2.455.369 4.411 1.062 6.75h-3c-1.534-3.069-.55-5.7 0-9z"/><path fill="#D5E1DB" d="M275 144v5l-1.875.438c-2.158.494-2.158.494-4.125 1.562l-2-5 3 1c4.435-3 4.435-3 5-3"/><path fill="#5F6965" d="m358 123 2 1v8l-4 1z"/><path fill="#BFC9C5" d="M368 126c3.125.75 3.125.75 6 2l1 2h-2l-1 4-1-5-1.875.625L367 130l-2-2z"/><path fill="#D1DED8" d="m310 118 6 4-1 2h-2l-1 2c-1.765-3.088-2-4.233-2-8"/><path fill="#CAD3CD" d="M231 102h1l1 7c-4.75-.875-4.75-.875-7-2v-3h2l2 2z"/><path fill="#E0E8E2" d="M316 85c1.033 2.788 1.045 3.868.063 6.75L315 94l-2-1c-.37-4.554-.37-4.554 1.5-6.812z"/><path fill="#E2ECE6" d="m347 83 3 1c-1.293 2.884-2.66 4.872-5 7v-7z"/><path fill="#404A44" d="M252 76h3v6l-4 1 2-1v-2h-2z"/><path fill="#ACB6AE" d="m236 71 3 1-4 1 3 6-7-1 1-3h2v-3z"/><path fill="#5B655F" d="m293 67 4 2-2 5-5-2 2-1c.652-2.025.652-2.025 1-4"/><path fill="#3A433E" d="M348 69h3v6h-3a88 88 0 0 1-1-5z"/><path fill="#C3CDC5" d="M336 57h2l1 4c-4.395 4.004-4.395 4.004-6 5l-3-1h2v-3l5-1z"/><path fill="#4A5650" d="M224 144h6l-2 2c.319 2.108.319 2.108 1 4h-3c-2-3-2-3-2-6"/><path fill="#3E4841" d="M341 141h1c.25 2.75.25 2.75 0 6-2 2.375-2 2.375-4 4 0-3.867 1.42-6.509 3-10"/><path fill="#4F5A55" d="m366 136 3 1-1 5-3 1v-2h-3l1-4v3l3-2z"/><path fill="#E2EDE6" d="m213 135 5 2-1.75.813c-2.283 1.204-4.224 2.595-6.25 4.187.75-4.75.75-4.75 3-7"/><path fill="#D5E2DC" d="m319 124 2 3 1-3 2 1c-1.312 2.938-1.312 2.938-3 6l-3 1z"/><path fill="#45514B" d="m270 125-1 4-9-1c3.584-2.39 5.732-3 10-3"/><path fill="#646D68" d="m284 117 4 2-1 2a121 121 0 0 0-.562 5.125l-.254 2.758L286 131h-1z"/><path fill="#4B5550" d="M341 71h2l1 7h-4z"/><path fill="#9A733C" d="m217 61 1 2-6 9-1-3c1.215-2.043 1.215-2.043 2.938-4.187l1.714-2.168z"/><path fill="#C6CFCA" d="m303 46 1 3 5 1-1 5-1-2 1-2-6 2z"/><path fill="#3E4742" d="m285 44 2 3-2 3-4-2 1-3z"/><path fill="#3B4945" d="m397 335-1 3c-2.763.597-5.16 1-8 1v-2c3.135-1.858 5.375-2.201 9-2"/><path fill="#495954" d="M377 296c2.343.256 4.678.593 7 1l1 2h-11l3-1z"/><path fill="#454C47" d="M352 212v3h-11v-1c3.877-1.193 6.916-2 11-2"/><path fill="#515B54" d="m366 148 2 2c1.317.697 2.65 1.37 4 2l-7 1v2l2 1h-3l-1-3c1.438-2.687 1.438-2.687 3-5"/><path fill="#CFD9D3" d="M257 146c3.875 1.75 3.875 1.75 5 4l3 2-3 1a141 141 0 0 1-5-5z"/><path fill="#C6CFC9" d="m267 140-1 11h-1l-.684-6.055c-.229-2.019-.229-2.019-1.316-3.945 3-1 3-1 4-1"/><path fill="#C2CDC6" d="M328 138v7l-3 1c-.687-2.312-.687-2.312-1-5 2.276-3 2.276-3 4-3"/><path fill="#525C55" d="m395 132 2 2c-.375 3.625-.375 3.625-1 7l-3-2z"/><path fill="#E3F0E9" d="M266 129c2.867.573 3.861.861 6 3v3c-1.875-.187-1.875-.187-4-1-1.25-2.562-1.25-2.562-2-5"/><path fill="#D6E2D9" d="M279 118h1c.195 6.055.195 6.055 0 8l-2 2c-1.467-3.815-.433-6.29 1-10"/><path fill="#E6EDE5" d="M404 108h1v9h-5z"/><path fill="#56615B" d="M341 89h1l1 8-5 2 1-4h2z"/><path fill="#3D4641" d="M358 84c-5.625 4-5.625 4-9 4v-2h2v-2c3.01-.934 3.867-1.044 7 0"/><path fill="#C1CBC4" d="M290 56c.625 1.875.625 1.875 1 4l-2 2h-3v5h-1c-.312-2.687-.312-2.687 0-6 2.5-2.875 2.5-2.875 5-5"/><path fill="#37423D" d="m313 51 3 1v4l-4 1a100 100 0 0 1 0-5z"/><path fill="#49514A" d="M329 47h2l-1 3 4 2-7 1z"/><path fill="#E2E9E1" d="m412 162 3 1-1.5 1.125c-2.098 2.622-1.717 4.613-1.5 7.875-1.414-2.639-2.372-5.071-3-8z"/><path fill="#474D49" d="m371 161 5 2-1 5c-2-1.812-2-1.812-4-4z"/><path fill="#373D3A" d="M373 160c2.063.438 2.063.438 4 1v7l-2-1 1-4-3 1-1-3z"/><path fill="#BAC2BD" d="m386 143 2 5h-4l-1 2v-4l-2-2c3-1 3-1 5-1"/><path fill="#CCD7D0" d="m398 140 3 3-2 4-5-1z"/><path fill="#E7F0EA" d="m345 130 1.813 1.438c2.19 1.727 2.19 1.727 5.187 2.562v2h-6z"/><path fill="#DFE9E1" d="m395 116 1 2 2 1-4 4c-.625-1.812-.625-1.812-1-4z"/><path fill="#535E58" d="m362 118 6 2c-2.639 1.414-5.071 2.372-8 3 .875-3.875.875-3.875 2-5"/><path fill="#E7F2EC" d="M302 113c1.875.313 1.875.313 4 1l2 3-4 2z"/><path fill="#E2EDE8" d="M260 87h1v6l5 2-4 2c-2-2-2-2-2.195-3.945z"/><path fill="#C7D0CA" d="M328 77c0 3 0 3-2 6-3.125.688-3.125.688-6 1v-2l2.875-1.375c3.128-1.427 3.128-1.427 5.125-3.625"/><path fill="#C8CFCA" d="m273 78 8 5-1 2-8-4z"/><path fill="#36423A" d="M354 56h2l1 5-4 1z"/><path fill="#424B45" d="m300 50 1 4 3 1-1 2h-2v5h-1z"/><path fill="#A18247" d="M333 25q2.221.423 4.438.875l2.496.492L342 27l1 2c-7.098-.67-7.098-.67-10-4"/><path fill="#38413C" d="M380 160c2.375.313 2.375.313 5 1l2 3-2 1-3-3-1 3h-1z"/><path fill="#39433C" d="M322 143h2l1 7-3-1z"/><path fill="#3F4A44" d="M389 136h5l1 6c-4.875-2.625-4.875-2.625-6-6"/><path fill="#343D38" d="m221 133 2 2-1 3-7-2v-1h6z"/><path fill="#515B54" d="M266 132v7l-2-2-2 3c-.368-4.536-.368-4.536 1.438-6.812C265 132 265 132 266 132"/><path fill="#373D38" d="M347 130h6l1 2-7 1z"/><path fill="#323E38" d="M329 127c0 3.129-.425 4.374-2 7l-2 1c.498-3.688 1.1-5.605 4-8"/><path fill="#E1EAE4" d="M214 120v6l-6-4c3.75-2 3.75-2 6-2"/><path fill="#C5D2CB" d="m333 112 2 3h2l-1 6-2-1c-.594-2.649-.742-5.292-1-8"/><path fill="#3F4943" d="M368.188 115.375 370 116v2l-7 1v-2c3-2 3-2 5.188-1.625"/><path fill="#525C55" d="M302 99c1.206 2.332 2.165 4.496 3 7l-4 1c-1.208-3.623-.543-4.641 1-8"/><path fill="#515F56" d="m296 97-1 7-4 1c.375-1.937.375-1.937 1-4l2-1-1-2c2-1 2-1 3-1"/><path fill="#2B3831" d="M311 90c1.5 1.375 1.5 1.375 3 3v2h2l-1 4v-3l-3 1z"/><path fill="#ADB7B2" d="M282 74h1q.544 2.404 1.063 4.813l.597 2.707C285 84 285 84 284 87l-2-1c-1.35-4.173-.752-7.74 0-12"/><path fill="#CCD5D0" d="M351 74c2 2 2 2 2.125 5.125L353 82h-2l-2-6z"/><path fill="#555F58" d="m290 51 1 4c2.49 1.297 2.49 1.297 5 2l-1.937.313L292 58l-1 3z"/><path fill="#2F3A32" d="M266 56h5l1 4h-4v-2h-2z"/><path fill="#C5CCC5" d="M303 37c1.563 1.813 1.563 1.813 3 4l-1 3-1-2-6 1 1-2h4z"/><path fill="#A07A43" d="M253 30v3c-2.312 1.75-2.312 1.75-5 3l-3-1z"/><path fill="#505F5A" d="M280 351v2l4 2c-3.375.188-3.375.188-7 0l-2-3c2-1 2-1 5-1"/><path fill="#485652" d="M359 335h4c-1.75 4.875-1.75 4.875-4 6-1.125-3.75-1.125-3.75 0-6"/><path fill="#566058" d="M203 160h5l1 5h-2v-3h-4z"/><path fill="#404944" d="m351 163-2 2h-4v-2l-2-1c3.623-1.208 4.641-.543 8 1"/><path fill="#D8E0DB" d="M384 160h6v3h-2l-1 2z"/><path fill="#E0E8E5" d="M331 151c1.625 1.688 1.625 1.688 3 4-.812 2.75-.812 2.75-2 5h-2z"/><path fill="#E4EDE6" d="M192 152a250 250 0 0 1 6 4v1l-7-1z"/><path fill="#454F49" d="M217 147h5l1 4-6-1z"/><path fill="#D7E1DA" d="M217 130h2l2 5c-4.75-.75-4.75-.75-7-3h3z"/><path fill="#364139" d="M248 130h6l-1 3-6-1z"/><path fill="#4D5650" d="m199 129 3 2-1 3h-5l2-2-1-2z"/><path fill="#34413B" d="m255 121 4 2c-2.639 1.414-5.071 2.372-8 3l1-3h3z"/><path fill="#313B34" d="M333 112v5h-3l-1 2c.375-2.937.375-2.937 1-6 2-1 2-1 3-1"/><path fill="#CCD7D1" d="m249 110 2 2c1.65.707 3.316 1.38 5 2l-1 2-7-3z"/><path fill="#48534C" d="m210 108 3 2-1 4v-3l-5 2c1.875-3.875 1.875-3.875 3-5"/><path fill="#E0EAE3" d="m228 101 3 1-1 5-3-3z"/><path fill="#68736C" d="m311 49 3 1-3 10c-1.05-4.199-.728-6.794 0-11"/><path fill="#5B635C" d="M308 40h2v7l-2 1a177 177 0 0 1-1-7z"/></svg>