<?xml version="1.0" encoding="iso-8859-1"?>
<!-- Uploaded to: SVG Repo, www.svgrepo.com, Generator: SVG Repo Mixer Tools -->
<svg fill="#000000" height="800px" width="800px" version="1.1" id="Layer_1" xmlns="http://www.w3.org/2000/svg" xmlns:xlink="http://www.w3.org/1999/xlink" 
	 viewBox="0 0 512 512" xml:space="preserve">
<g>
	<g>
		<path d="M509.657,498.343L403.154,391.842l16.936-16.936c3.124-3.124,3.124-8.19,0-11.315l-16.28-16.28l30.257-30.257
			c3.124-3.124,3.124-8.19,0-11.315L208.699,80.372c-3.124-3.124-8.19-3.124-11.313,0l-52.85,52.85L98.61,87.297l52.85-52.85
			c3.124-3.124,3.124-8.19,0-11.315L130.671,2.344C129.171,0.843,127.136,0,125.014,0c-2.122,0-4.157,0.843-5.657,2.344
			L2.344,119.357C0.843,120.857,0,122.892,0,125.014c0,2.122,0.843,4.157,2.344,5.657l20.789,20.789
			c1.562,1.562,3.61,2.344,5.657,2.344c2.048,0,4.095-0.781,5.657-2.344l52.85-52.85l45.925,45.925l-52.85,52.85
			c-3.124,3.124-3.124,8.19,0,11.313L241.45,369.777c3.124,3.124,8.19,3.124,11.314,0c3.124-3.124,3.124-8.19,0-11.313l-5.313-5.313
			l22.53-22.53c3.124-3.124,3.124-8.19,0-11.313c-3.124-3.124-8.19-3.124-11.313,0l-22.53,22.53l-28.739-28.739l32.484-32.484
			c3.124-3.124,3.124-8.19,0-11.313c-3.124-3.124-8.19-3.124-11.313,0l-32.484,32.484l-28.739-28.739l22.53-22.53
			c3.124-3.124,3.124-8.19,0-11.313c-3.124-3.124-8.19-3.124-11.313,0l-22.53,22.53l-28.739-28.739l32.485-32.484
			c3.124-3.124,3.124-8.19,0-11.313c-3.123-3.124-8.189-3.124-11.313,0l-32.485,32.484l-18.636-18.636l72.783-72.783l44.845,44.846
			c1.562,1.562,3.61,2.344,5.657,2.344c2.047,0,4.095-0.781,5.657-2.344c3.124-3.124,3.124-8.19,0-11.313l-44.845-44.846
			l21.603-21.603l214.055,214.055l-21.603,21.603l-150.9-150.9c-3.124-3.124-8.19-3.124-11.313,0c-3.124,3.124-3.124,8.19,0,11.313
			L384.18,344.313l-42.526,42.526l-30.257,30.257l-23.893-23.893l32.484-32.484c3.124-3.124,3.124-8.19,0-11.314
			c-3.124-3.124-8.19-3.124-11.314,0l-32.483,32.485l-4.798-4.798c-3.124-3.124-8.19-3.124-11.314,0
			c-3.124,3.124-3.124,8.19,0,11.313l10.449,10.449c0.002,0.002,0.003,0.003,0.005,0.005c0.002,0.002,0.003,0.003,0.005,0.005
			l35.202,35.202c1.562,1.562,3.61,2.344,5.657,2.344c2.047,0,4.095-0.781,5.657-2.344l30.257-30.257l16.28,16.28
			c1.562,1.562,3.61,2.344,5.657,2.344c2.047,0,4.095-0.781,5.657-2.344l16.936-16.936l106.501,106.503
			c1.562,1.562,3.61,2.344,5.657,2.344s4.095-0.781,5.657-2.344C512.781,506.532,512.781,501.466,509.657,498.343z M28.789,134.49
			l-9.476-9.476L125.013,19.315l9.475,9.475L28.789,134.49z M386.188,386.18c-0.002,0.002-0.003,0.003-0.005,0.005
			c-0.002,0.002-0.003,0.003-0.005,0.005l-16.93,16.93l-10.623-10.623l33.871-33.871l10.623,10.623L386.188,386.18z"/>
	</g>
</g>
</svg>